<svg viewBox="0 0 50 50" xmlns="http://www.w3.org/2000/svg"><path d="m0 0h50v50h-50z" fill="none"/><path d="m25 7.55a19.17 19.17 0 1 0 19.17 19.17 19.19 19.19 0 0 0 -19.17-19.17zm4.59 32.92-6.54-13.27v-14.2h4.11v13.24l6.12 12.42z" fill="none"/><path d="m41.46 10.26a23.28 23.28 0 1 0 -32.92 32.92 23.28 23.28 0 1 0 32.92-32.92zm-16.46 35.63a19.17 19.17 0 1 1 19.17-19.17 19.19 19.19 0 0 1 -19.17 19.17z"/><path d="m14 3.59-1-1.79-1-1.8a38.1 38.1 0 0 0 -8.48 6.54l3.06 2.74a34.58 34.58 0 0 1 7.42-5.69z"/><path d="m43.46 9.28 3.07-2.73a37.94 37.94 0 0 0 -8.53-6.55l-2 3.59a34.15 34.15 0 0 1 7.46 5.69z"/><path d="m27.16 13.02h-4.11v14.18l6.54 13.27 3.68-1.81-6.11-12.42z"/></svg>