<svg viewBox="0 0 50 50" xmlns="http://www.w3.org/2000/svg"><path d="m0 0h50v50h-50z" fill="none"/><path d="m25 5.36a21.67 21.67 0 1 0 21.67 21.64 21.69 21.69 0 0 0 -21.67-21.64zm6.39 35.9-6.93-14.08v-15.06h1.31v14.75l6.8 13.81z" fill="none"/><path d="m25 4.05a23 23 0 1 0 23 22.95 23 23 0 0 0 -23-22.95zm0 44.64a21.67 21.67 0 1 1 21.67-21.69 21.69 21.69 0 0 1 -21.67 21.69z"/><path d="m4.51 7.68a37.7 37.7 0 0 1 8.22-6.29l.42-.24-.64-1.15-.42.24a39.11 39.11 0 0 0 -8.56 6.57l-.32.36 1 .87z"/><path d="m45.54 7.68.32.37 1-.87-.33-.37a38.79 38.79 0 0 0 -8.53-6.57l-.46-.24-.64 1.14.42.24a37.89 37.89 0 0 1 8.22 6.3z"/><path d="m25.77 12.12h-1.31v15.06l6.93 14.08 1.18-.58-6.8-13.81z"/></svg>