<svg viewBox="0 0 50 50" xmlns="http://www.w3.org/2000/svg"><path d="m0 0h50v50h-50z" fill="none"/><path d="m38.12 11.6a.39.39 0 0 1 -.39-.39v-6a5.16 5.16 0 0 0 -5.17-5.21h-15.12a5.16 5.16 0 0 0 -5.16 5.17v6a.39.39 0 0 1 -.39.39 2.52 2.52 0 0 0 -2.51 2.51v30.56a2.51 2.51 0 0 0 2.51 2.51h1.89a1.75 1.75 0 0 0 0 .32 2.55 2.55 0 0 0 5.09 0c0-.11 0-.21 0-.32h12.34v.32a2.55 2.55 0 0 0 5.09 0 1.75 1.75 0 0 0 0-.32h1.89a2.51 2.51 0 0 0 2.51-2.51v-30.52a2.52 2.52 0 0 0 -2.58-2.51zm-4.3-.6a.66.66 0 0 1 -.65.65h-4.07a1.38 1.38 0 0 0 -1.38-1.3h-5.44a1.38 1.38 0 0 0 -1.38 1.3h-4.07a.65.65 0 0 1 -.65-.65v-5.83a1.26 1.26 0 0 1 1.26-1.26h15.12a1.26 1.26 0 0 1 1.26 1.26z" fill="#0a0a0a"/></svg>