<svg viewBox="0 0 40.72 51" xmlns="http://www.w3.org/2000/svg"><path d="m40.72 46.67-2.81-5.54a16.08 16.08 0 0 1 -1.71-7.65l.38-13.3a16.21 16.21 0 0 0 -13.66-16v-1.62a2.54 2.54 0 0 0 -.75-1.81 2.56 2.56 0 0 0 -4.37 1.81v1.6a16.22 16.22 0 0 0 -13.66 16l.38 13.29a16.08 16.08 0 0 1 -1.71 7.65l-2.81 5.57h15.59a4.8 4.8 0 0 0 9.55 0zm-34.72-13.23-.37-13.27a14.73 14.73 0 0 1 29.46 0l-.38 13.28a17.6 17.6 0 0 0 1.87 8.37l1.72 3.38h-35.88l1.71-3.38a17.49 17.49 0 0 0 1.87-8.38zm13.29-30.88a1.07 1.07 0 0 1 1.07-1.07 1.1 1.1 0 0 1 .76.31 1.07 1.07 0 0 1 .31.76v1.44c-.36 0-.72 0-1.07 0s-.71 0-1.07 0zm-2.21 44.11h6.57a3.32 3.32 0 0 1 -6.57 0z"/></svg>