<svg viewBox="0 0 50 32.25" xmlns="http://www.w3.org/2000/svg"><g fill="#212121"><path d="m19.34 14.66a1 1 0 0 0 -.91.33l-1.55 1.8a1 1 0 0 0 0 1.29 7.6 7.6 0 0 1 1.68 3.51l.11.59h3.1.39l.45-.67-2.5-6.22a1 1 0 0 0 -.77-.63zm1.39 6.07h-.88a9.23 9.23 0 0 0 -1.63-3.29l.78-.94z"/><path d="m40.1 13.58-2.32-9.07-.08-.25a6.43 6.43 0 0 0 -2.37-3.39c-1-.71-3.26-1.62-6.41.18l-.68.39 2.48 3.69.59-.34c.73-.42 1.14-.45 1.26-.4a1.74 1.74 0 0 1 .67 1l.48 1.84-.3.38-11.78 3.1-.06-.17h.3a2.27 2.27 0 0 0 2.32-2.2 2.27 2.27 0 0 0 -2.32-2.2h-6.67a2.27 2.27 0 0 0 -2.32 2.2 2.27 2.27 0 0 0 2.32 2.2h1.42l.51 1.27-2.45 2.84a10.66 10.66 0 0 0 -4.62-1.05c-5.55-.02-10.07 4.17-10.07 9.32s4.52 9.33 10.07 9.33a9.85 9.85 0 0 0 9.78-7.15h.79a3.71 3.71 0 0 0 1.36 1.43 1.44 1.44 0 0 0 -.59 1.15 1.48 1.48 0 0 0 1.51 1.45h2.43a1.48 1.48 0 0 0 1.51-1.45 1.43 1.43 0 0 0 -.58-1.15 3.69 3.69 0 0 0 1.81-3.1 3.4 3.4 0 0 0 -.35-1.5l7.36-9.22.46 1.79a9.31 9.31 0 0 0 -5.71 8.42c0 5.15 4.51 9.33 10.06 9.33s10.09-4.18 10.09-9.33-4.42-9.26-9.9-9.34zm-3.61 2.11a1 1 0 0 0 .6-1.17l-.65-2.52a1.28 1.28 0 0 0 -1-.93h-.26a1.26 1.26 0 0 0 -1 .47l-7.78 9.75a1 1 0 0 0 -.07 1.13 2 2 0 0 1 .29 1 2.31 2.31 0 0 1 -1.81 2.16l-.54.14v.95h-.11.11v.95h-.27v-.95h.11-.11v-.95l-.54-.14a2.46 2.46 0 0 1 -1.63-1.34 1 1 0 0 0 -.91-.6h-2.26l-.11.6a8.39 8.39 0 0 1 -8.48 6.55c-4.75 0-8.62-3.53-8.62-7.88s3.87-7.91 8.62-7.91a9.29 9.29 0 0 1 4.27 1 1 1 0 0 0 1.21-.22l2.87-3.32a1 1 0 0 0 .17-1l-1-2.43h-2.38a.82.82 0 0 1 -.87-.75.82.82 0 0 1 .87-.75h6.67a.82.82 0 0 1 .87.75.82.82 0 0 1 -.87.75h-2.45l1 2.53a1 1 0 0 0 1.17.59l12.33-3.15a1 1 0 0 0 .53-.34l.54-.72a1 1 0 0 0 .19-.87l-.55-2.07a3.16 3.16 0 0 0 -1.55-2 2.48 2.48 0 0 0 -1.9.19l-.85-1.19a4.11 4.11 0 0 1 4.17.12 5 5 0 0 1 1.84 2.78l.17.71 2.19 8.54a1.23 1.23 0 0 0 1.19.93c4.75 0 8.62 3.54 8.62 7.89s-3.87 7.88-8.62 7.88-8.61-3.53-8.61-7.88a7.9 7.9 0 0 1 5.2-7.28z"/><path d="m29.79 11.58-7.37 1.94a1 1 0 0 0 -.67 1.33l1.95 4.86a1 1 0 0 0 .78.61h.15a1 1 0 0 0 .77-.32l5.42-6.79a1 1 0 0 0 -1-1.59zm-1 1.82-4 5-1.47-3.65 5.24-1.38-.21.22z"/></g></svg>