<svg viewBox="0 0 50 31.72" xmlns="http://www.w3.org/2000/svg"><path d="m40.38 14a.53.53 0 0 1 -.51-.39l-2.43-9.5a5.82 5.82 0 0 0 -2.22-3.35c-.93-.63-2.92-1.44-5.81.24l1.72 2.55a2.61 2.61 0 0 1 1.93-.46 2.51 2.51 0 0 1 1.15 1.52l.55 2.13a.3.3 0 0 1 0 .24l-.56.69a.24.24 0 0 1 -.14.1l-12.73 3.31a.28.28 0 0 1 -.33-.16l-.63-1.58h1.42a1.58 1.58 0 0 0 1.64-1.52 1.58 1.58 0 0 0 -1.64-1.52h-6.87a1.59 1.59 0 0 0 -1.65 1.52 1.59 1.59 0 0 0 1.65 1.52h2l.82 2a.28.28 0 0 1 -.05.29l-3 3.42a.26.26 0 0 1 -.33.06 10.29 10.29 0 0 0 -4.74-1.11c-5.31 0-9.62 4-9.62 8.85s4.31 8.87 9.62 8.87a9.41 9.41 0 0 0 9.47-7.37h1.71a.29.29 0 0 1 .26.18 3.24 3.24 0 0 0 2.16 1.79v.68h-.34a.75.75 0 1 0 0 1.5h2.5a.75.75 0 1 0 0-1.5h-.38v-.69a3.1 3.1 0 0 0 2.41-2.94 2.77 2.77 0 0 0 -.4-1.45.29.29 0 0 1 0-.32l8-10a.55.55 0 0 1 1 .21l.67 2.61a.27.27 0 0 1 -.17.32 8.89 8.89 0 0 0 -5.79 8.14c0 4.9 4.31 8.87 9.62 8.87s9.62-4 9.62-8.87-4.27-8.88-9.58-8.88zm-10-1.64-5.58 7a.29.29 0 0 1 -.48-.07l-2-5a.28.28 0 0 1 .19-.38l7.58-2a.28.28 0 0 1 .32.43zm-8.72 9v.05h-2.57a8.45 8.45 0 0 0 -1.89-3.95.29.29 0 0 1 0-.37l1.6-1.84a.27.27 0 0 1 .46.07z" fill="#0a0a0a"/></svg>