<svg viewBox="0 0 51 43.52" xmlns="http://www.w3.org/2000/svg"><path d="m44.08 1.56h-24.81l-.1-1.56h-8.53v1.52h-3.71a6.94 6.94 0 0 0 -6.93 6.97v28.1a6.94 6.94 0 0 0 6.92 6.93h37.16a6.94 6.94 0 0 0 6.92-6.93v-28.1a6.94 6.94 0 0 0 -6.92-6.93zm-32-.06v-.09h5.79v.23a1.43 1.43 0 0 0 1.42 1.36h24.79a5.52 5.52 0 0 1 5.51 5.51v28.1a5.52 5.52 0 0 1 -5.51 5.51h-37.16a5.52 5.52 0 0 1 -5.51-5.51v-28.12a5.52 5.52 0 0 1 5.52-5.49h3.72a1.42 1.42 0 0 0 1.4-1.5z"/><path d="m25.5 32.11a10.35 10.35 0 1 0 -10.35-10.35 10.36 10.36 0 0 0 10.35 10.35zm0-19.29a8.94 8.94 0 1 1 -8.94 8.94 8.95 8.95 0 0 1 8.94-8.94z"/><path d="m25.5 29.45a7.7 7.7 0 1 0 -7.7-7.69 7.71 7.71 0 0 0 7.7 7.69zm0-14a6.31 6.31 0 1 1 -6.31 6.31 6.32 6.32 0 0 1 6.31-6.31z"/></svg>