<svg viewBox="0 0 50 42.45" xmlns="http://www.w3.org/2000/svg"><path d="m25 11a10.28 10.28 0 1 0 10.28 10.23 10.29 10.29 0 0 0 -10.28-10.23zm0 17.88a7.61 7.61 0 1 1 7.61-7.6 7.6 7.6 0 0 1 -7.61 7.55z" fill="none"/><path d="m43.73 1.58h-25.6a.07.07 0 0 1 -.08-.07l-.05-1.51h-7.27v1.44a.08.08 0 0 1 -.08.08l-4.38.06a6.27 6.27 0 0 0 -6.27 6.27v28.33a6.27 6.27 0 0 0 6.27 6.27h37.46a6.27 6.27 0 0 0 6.27-6.27v-28.33a6.27 6.27 0 0 0 -6.27-6.27zm-18.73 29.93a10.28 10.28 0 1 1 10.28-10.28 10.3 10.3 0 0 1 -10.28 10.28z"/><circle cx="25" cy="21.23" r="7.61"/></svg>