<svg viewBox="0 0 50 50" xmlns="http://www.w3.org/2000/svg"><path d="m0 0h50v50h-50z" fill="none"/><path d="m8.67 41.39a2.05 2.05 0 0 1 -2-2.06v-16.58a2.06 2.06 0 0 1 4.11 0v16.58a2.06 2.06 0 0 1 -2.11 2.06zm0-19.71a1.07 1.07 0 0 0 -1.07 1.07v16.58a1.08 1.08 0 1 0 2.15 0v-16.58a1.07 1.07 0 0 0 -1.08-1.07z"/><path d="m16.84 41.39a2.06 2.06 0 0 1 -2.06-2.06v-16.58a2.06 2.06 0 0 1 4.11 0v16.58a2.05 2.05 0 0 1 -2.05 2.06zm0-19.71a1.07 1.07 0 0 0 -1.08 1.07v16.58a1.08 1.08 0 1 0 2.15 0v-16.58a1.07 1.07 0 0 0 -1.07-1.07z"/><path d="m33.16 41.39a2.05 2.05 0 0 1 -2-2.06v-16.58a2.06 2.06 0 0 1 4.11 0v16.58a2.06 2.06 0 0 1 -2.11 2.06zm0-19.71a1.07 1.07 0 0 0 -1.07 1.07v16.58a1.08 1.08 0 1 0 2.15 0v-16.58a1.07 1.07 0 0 0 -1.08-1.07z"/><path d="m44 14.61h-38l19-13.24zm-34.89-1h31.77l-15.88-11.05z"/><path d="m25 41.39a2.05 2.05 0 0 1 -2-2.06v-16.58a2.05 2.05 0 0 1 4.1 0v16.58a2.05 2.05 0 0 1 -2.1 2.06zm0-19.71a1.07 1.07 0 0 0 -1.07 1.07v16.58a1.07 1.07 0 1 0 2.14 0v-16.58a1.07 1.07 0 0 0 -1.07-1.07z"/><path d="m41.33 41.39a2.06 2.06 0 0 1 -2.06-2.06v-16.58a2.06 2.06 0 0 1 4.11 0v16.58a2.05 2.05 0 0 1 -2.05 2.06zm0-19.71a1.07 1.07 0 0 0 -1.08 1.07v16.58a1.08 1.08 0 1 0 2.15 0v-16.58a1.07 1.07 0 0 0 -1.07-1.07z"/><path d="m41.76 48.69h-33.52a5.33 5.33 0 0 1 -5.3-4.75l-2.63-24.13a5.33 5.33 0 0 1 5.3-5.91h38.78a5.33 5.33 0 0 1 5.3 5.91l-2.63 24.13a5.33 5.33 0 0 1 -5.3 4.75zm-36.15-33.81a4.36 4.36 0 0 0 -4.33 4.82l2.64 24.13a4.34 4.34 0 0 0 4.32 3.88h33.52a4.34 4.34 0 0 0 4.32-3.88l2.64-24.13a4.36 4.36 0 0 0 -4.33-4.82zm35.72 26.78a2.33 2.33 0 0 1 -2.33-2.33v-16.58a2.33 2.33 0 0 1 4.66 0v16.58a2.33 2.33 0 0 1 -2.33 2.33zm0-20.26a1.35 1.35 0 0 0 -1.33 1.35v16.58a1.35 1.35 0 0 0 2.7 0v-16.58a1.36 1.36 0 0 0 -1.37-1.35zm-8.17 20.26a2.33 2.33 0 0 1 -2.33-2.33v-16.58a2.33 2.33 0 0 1 4.66 0v16.58a2.33 2.33 0 0 1 -2.33 2.33zm0-20.26a1.36 1.36 0 0 0 -1.35 1.35v16.58a1.35 1.35 0 0 0 2.7 0v-16.58a1.35 1.35 0 0 0 -1.35-1.35zm-8.16 20.26a2.33 2.33 0 0 1 -2.33-2.33v-16.58a2.33 2.33 0 0 1 4.66 0v16.58a2.33 2.33 0 0 1 -2.33 2.33zm0-20.26a1.36 1.36 0 0 0 -1.35 1.35v16.58a1.35 1.35 0 0 0 2.7 0v-16.58a1.36 1.36 0 0 0 -1.35-1.35zm-8.16 20.26a2.33 2.33 0 0 1 -2.33-2.33v-16.58a2.33 2.33 0 0 1 4.66 0v16.58a2.33 2.33 0 0 1 -2.33 2.33zm0-20.26a1.35 1.35 0 0 0 -1.35 1.35v16.58a1.35 1.35 0 0 0 2.7 0v-16.58a1.36 1.36 0 0 0 -1.35-1.35zm-8.17 20.26a2.33 2.33 0 0 1 -2.33-2.33v-16.58a2.33 2.33 0 0 1 4.66 0v16.58a2.33 2.33 0 0 1 -2.33 2.33zm0-20.26a1.36 1.36 0 0 0 -1.35 1.35v16.58a1.35 1.35 0 0 0 2.7 0v-16.58a1.35 1.35 0 0 0 -1.35-1.35z"/><path d="m48.2 15.82a5.09 5.09 0 0 0 -3.81-1.7h-1.46l-17.85-12.43-.08-.06-17.93 12.49h-1.46a5.12 5.12 0 0 0 -5.09 5.67l2.63 24.13a5.11 5.11 0 0 0 5.09 4.56h33.52a5.11 5.11 0 0 0 5.09-4.56l2.63-24.13a5.1 5.1 0 0 0 -1.28-3.97zm-23.2-13.82 17.44 12.12h-34.88zm24.2 17.76-2.63 24.13a4.84 4.84 0 0 1 -4.81 4.31h-33.52a4.84 4.84 0 0 1 -4.81-4.31l-2.63-24.13a4.84 4.84 0 0 1 4.81-5.37h38.78a4.84 4.84 0 0 1 4.81 5.37z"/><path d="m41.76 49h-33.52a5.59 5.59 0 0 1 -5.57-5l-2.67-24.16a5.62 5.62 0 0 1 5.58-6.22h1.34l18.08-12.62 18.08 12.62h1.31a5.63 5.63 0 0 1 4.18 1.87 5.62 5.62 0 0 1 1.43 4.35l-2.67 24.16a5.59 5.59 0 0 1 -5.57 5zm-36.15-34.12a4.36 4.36 0 0 0 -4.33 4.82l2.64 24.13a4.34 4.34 0 0 0 4.32 3.88h33.52a4.34 4.34 0 0 0 4.32-3.88l2.64-24.13a4.36 4.36 0 0 0 -4.33-4.82zm3.51-1.26h31.76l-15.88-11.06z"/><path d="m8.67 20.91a1.85 1.85 0 0 0 -1.84 1.84v16.58a1.84 1.84 0 0 0 3.68 0v-16.58a1.84 1.84 0 0 0 -1.84-1.84zm1.57 18.42a1.57 1.57 0 1 1 -3.13 0v-16.58a1.57 1.57 0 0 1 3.13 0z"/><path d="m8.67 41.66a2.33 2.33 0 0 1 -2.33-2.33v-16.58a2.33 2.33 0 0 1 4.66 0v16.58a2.33 2.33 0 0 1 -2.33 2.33zm0-20a1.07 1.07 0 0 0 -1.07 1.09v16.58a1.08 1.08 0 1 0 2.15 0v-16.58a1.07 1.07 0 0 0 -1.08-1.07z"/><path d="m16.84 20.91a1.84 1.84 0 0 0 -1.84 1.84v16.58a1.84 1.84 0 0 0 3.68 0v-16.58a1.85 1.85 0 0 0 -1.84-1.84zm1.56 18.42a1.57 1.57 0 1 1 -3.13 0v-16.58a1.57 1.57 0 0 1 3.13 0z"/><path d="m16.84 41.66a2.33 2.33 0 0 1 -2.33-2.33v-16.58a2.33 2.33 0 0 1 4.66 0v16.58a2.33 2.33 0 0 1 -2.33 2.33zm0-20a1.07 1.07 0 0 0 -1.08 1.07v16.6a1.08 1.08 0 1 0 2.15 0v-16.58a1.07 1.07 0 0 0 -1.07-1.07z"/><path d="m25 20.91a1.84 1.84 0 0 0 -1.84 1.84v16.58a1.84 1.84 0 0 0 3.68 0v-16.58a1.85 1.85 0 0 0 -1.84-1.84zm1.56 18.42a1.56 1.56 0 0 1 -1.56 1.57 1.56 1.56 0 0 1 -1.56-1.57v-16.58a1.56 1.56 0 0 1 1.56-1.56 1.56 1.56 0 0 1 1.56 1.56z"/><path d="m25 41.66a2.33 2.33 0 0 1 -2.33-2.33v-16.58a2.33 2.33 0 0 1 4.66 0v16.58a2.33 2.33 0 0 1 -2.33 2.33zm0-20a1.07 1.07 0 0 0 -1.07 1.07v16.6a1.07 1.07 0 1 0 2.14 0v-16.58a1.07 1.07 0 0 0 -1.07-1.07z"/><path d="m33.16 20.91a1.85 1.85 0 0 0 -1.84 1.84v16.58a1.84 1.84 0 0 0 3.68 0v-16.58a1.84 1.84 0 0 0 -1.84-1.84zm1.57 18.42a1.57 1.57 0 1 1 -3.13 0v-16.58a1.57 1.57 0 0 1 3.13 0z"/><path d="m33.16 41.66a2.33 2.33 0 0 1 -2.33-2.33v-16.58a2.33 2.33 0 0 1 4.66 0v16.58a2.33 2.33 0 0 1 -2.33 2.33zm0-20a1.07 1.07 0 0 0 -1.07 1.07v16.6a1.08 1.08 0 1 0 2.15 0v-16.58a1.07 1.07 0 0 0 -1.08-1.07z"/><path d="m41.33 20.91a1.84 1.84 0 0 0 -1.84 1.84v16.58a1.84 1.84 0 0 0 3.68 0v-16.58a1.85 1.85 0 0 0 -1.84-1.84zm1.56 18.42a1.57 1.57 0 1 1 -3.13 0v-16.58a1.57 1.57 0 0 1 3.13 0z"/><path d="m41.33 41.66a2.33 2.33 0 0 1 -2.33-2.33v-16.58a2.33 2.33 0 0 1 4.66 0v16.58a2.33 2.33 0 0 1 -2.33 2.33zm0-20a1.07 1.07 0 0 0 -1.08 1.07v16.6a1.08 1.08 0 1 0 2.15 0v-16.58a1.07 1.07 0 0 0 -1.07-1.07z"/></svg>