<svg viewBox="0 0 50 50" xmlns="http://www.w3.org/2000/svg"><g fill="none"><path d="m0 0h50v50h-50z"/><path d="m8.3 22.37a1.6 1.6 0 0 0 -1.6 1.63v17a1.6 1.6 0 1 0 3.2 0v-17a1.6 1.6 0 0 0 -1.6-1.63z"/><rect height="20.16" rx="1.6" width="3.2" x="23.4" y="22.37"/><path d="m16.65 22.37a1.6 1.6 0 0 0 -1.6 1.6v17a1.6 1.6 0 0 0 3.2 0v-16.97a1.6 1.6 0 0 0 -1.6-1.63z"/><path d="m41.7 22.37a1.6 1.6 0 0 0 -1.6 1.63v17a1.6 1.6 0 1 0 3.2 0v-17a1.6 1.6 0 0 0 -1.6-1.63z"/><path d="m14.07 15.42h21.86l-10.93-10.35z"/><path d="m33.35 22.37a1.6 1.6 0 0 0 -1.6 1.6v17a1.6 1.6 0 0 0 3.2 0v-16.97a1.6 1.6 0 0 0 -1.6-1.63z"/></g><path d="m44.84 15.42h-3.56l-16.28-15.42-16.28 15.42h-3.56a5 5 0 0 0 -4.92 5.48l2.69 24.69a5 5 0 0 0 4.93 4.41h34.28a5 5 0 0 0 4.93-4.41l2.69-24.69a5 5 0 0 0 -4.92-5.48zm-34.94 25.51a1.6 1.6 0 1 1 -3.2 0v-16.93a1.6 1.6 0 0 1 3.2 0zm8.35 0a1.6 1.6 0 0 1 -3.2 0v-16.93a1.6 1.6 0 0 1 3.2 0zm8.35 0a1.6 1.6 0 0 1 -1.6 1.6 1.6 1.6 0 0 1 -1.6-1.6v-16.93a1.6 1.6 0 0 1 1.6-1.6 1.6 1.6 0 0 1 1.6 1.6zm8.35 0a1.6 1.6 0 0 1 -3.2 0v-16.93a1.6 1.6 0 0 1 3.25 0zm-20.88-25.51 10.93-10.35 10.93 10.35zm29.23 25.51a1.6 1.6 0 1 1 -3.2 0v-16.93a1.6 1.6 0 1 1 3.2 0z"/></svg>