<svg viewBox="0 0 51 50" xmlns="http://www.w3.org/2000/svg"><path d="m.5 0h50v50h-50z" fill="none"/><path d="m33.37 37a9.81 9.81 0 0 0 16.38-7.29 9.87 9.87 0 0 0 -9.63-9.82h-.28l-.21-.25a9.86 9.86 0 0 0 -9.63-4.91h-.29l-.24-.23a9.91 9.91 0 0 0 -7.94-4 9.79 9.79 0 0 0 -9.76 8.8l-.05.57h-.63a9.82 9.82 0 0 0 0 19.63 9.73 9.73 0 0 0 7-2.94l.45-.45.44.46a9.83 9.83 0 0 0 13.55.43l.42-.38z" fill="none"/><path d="m47.83 21.93a11 11 0 0 0 -7.34-3.3 11.08 11.08 0 0 0 -10.31-5.17 11.06 11.06 0 0 0 -19.61 5.17 11.06 11.06 0 1 0 7.94 19.23 11.08 11.08 0 0 0 14.44.4 11.06 11.06 0 0 0 14.88-16.33zm-21.83 17.56a9.75 9.75 0 0 1 -7-2.93l-.44-.46-.45.45a9.82 9.82 0 0 1 -16.86-6.87 9.83 9.83 0 0 1 9.81-9.82h.63l.05-.57a9.79 9.79 0 0 1 9.76-8.8 9.91 9.91 0 0 1 7.94 4l.24.23h.29a9.86 9.86 0 0 1 9.66 4.88l.21.25h.28a9.82 9.82 0 0 1 -.18 19.63 9.75 9.75 0 0 1 -6.57-2.48l-.37-.41-.42.38a9.77 9.77 0 0 1 -6.58 2.52z"/></svg>