<svg viewBox="0 0 50 50" xmlns="http://www.w3.org/2000/svg"><path d="m0 0h50v50h-50z" fill="none"/><path d="m42.78 24.56v-7.66a7.1 7.1 0 0 0 -7.09-7.08h-11.34a7.09 7.09 0 0 0 -7.08 7.08v26a7.09 7.09 0 0 0 7.08 7.1h11.34a7.1 7.1 0 0 0 7.09-7.09v-9.28h-5.43v9.28a1.66 1.66 0 0 1 -1.66 1.66h-11.34a1.66 1.66 0 0 1 -1.66-1.66v-26a1.66 1.66 0 0 1 1.66-1.65h11.34a1.66 1.66 0 0 1 1.66 1.65v7.66z"/><path d="m34.36 5.43v-5.43h-10.36a16.8 16.8 0 0 0 -16.78 16.77v22h5.43v-22a11.36 11.36 0 0 1 11.35-11.34z"/></svg>