<svg viewBox="0 0 50 49.33" xmlns="http://www.w3.org/2000/svg"><path d="m.33 0h49.33v49.33h-49.33z" fill="none"/><path d="m50 48-23.66-23.67 7.38-7.39 2.72 2.72 8.17-11.38 4.72-8.28-8.28 4.72-11.38 8.17 2.71 2.71-7.38 7.4-7.39-7.4 2.72-2.71-11.33-8.17-8.33-4.72 4.72 8.28 8.17 11.38 2.71-2.72 7.39 7.39-23.66 23.67 1.34 1.34 23.66-23.67 23.66 23.66zm-7.92-41.68 2.17-1.24-1.25 2.17-6.8 9.49-1.63-1.63-.35-.35-1.63-1.63zm-28.28 10.42-6.8-9.49-1.25-2.17 2.17 1.24 9.49 6.81-1.63 1.63-.35.35z" fill="#212121"/></svg>