<svg viewBox="0 0 50 50" xmlns="http://www.w3.org/2000/svg"><g fill="none"><path d="m0 0h50v50h-50z"/><path d="m25 13.67a1 1 0 1 0 1 1 1 1 0 0 0 -1-1z"/><path d="m24 22a1 1 0 1 0 1-1 1 1 0 0 0 -1 1z"/></g><path d="m49.72 14.19-4-2.48h-16.72v-1.71a4 4 0 0 0 -4-4 4 4 0 0 0 -4 4v7.7h24.75l4-2.49a.58.58 0 0 0 -.03-1.02zm-24.72 1.53a1 1 0 1 1 1-1 1 1 0 0 1 -1 1z"/><path d="m21 19h-16.75l-4 2.49a.58.58 0 0 0 0 1l4 2.49h16.75v18.65a.35.35 0 0 0 .64.18l1.85-2.88a.36.36 0 0 1 .6 0l.71 1.29a.35.35 0 0 0 .49.12l1.21-.75a.34.34 0 0 1 .47.11l1.35 2.09a.35.35 0 0 0 .64-.18v-24.61zm5 3a1 1 0 1 1 -1-1 1 1 0 0 1 1 1z"/></svg>