<svg viewBox="0 0 50 50" xmlns="http://www.w3.org/2000/svg"><g fill="none"><path d="m0 0h50v50h-50z"/><path d="m21.23 19.33c0 1.15.76 1.92 1.94 2.57v-5a2.68 2.68 0 0 0 -1.94 2.43z"/><path d="m26.83 27.39v5.83c1.88-.4 2.94-1.57 2.94-2.95s-1.09-2.15-2.94-2.88z"/></g><path d="m33.7 30.22c0-4.14-2.68-5.19-6.87-6.78v-6.58a9.59 9.59 0 0 1 4.1 2.14l2-3a11.9 11.9 0 0 0 -6.1-2.73v-2.65h-3.66v2.67c-3.47.62-5.87 3-5.87 6 0 3.83 2.59 5.48 5.87 6.73v7.11a9.39 9.39 0 0 1 -4.87-2.53l-2 2.92a13.08 13.08 0 0 0 6.87 3.19v2.67h3.66v-2.59c4.6-.48 6.87-3.27 6.87-6.57zm-12.47-10.89a2.68 2.68 0 0 1 1.94-2.42v5c-1.17-.66-1.94-1.43-1.94-2.58zm5.6 13.89v-5.83c1.85.73 2.94 1.45 2.94 2.88s-1.06 2.55-2.94 2.95z"/></svg>