<svg viewBox="0 0 50 50" xmlns="http://www.w3.org/2000/svg"><g fill="none"><path d="m0 0h50v50h-50z"/><path d="m1.6 48.61a.36.36 0 0 0 .23 0l14.77-4-11.28-11.21-3.95 14.76a.34.34 0 0 0 0 .2.33.33 0 0 0 .1.17.35.35 0 0 0 .13.08z"/><path d="m34.58 3.76-26.35 26.36 11.65 11.65 26.35-26.35a8.24 8.24 0 1 0 -11.65-11.66z"/></g><path d="m47.19 2.81a9.6 9.6 0 0 0 -13.56 0l-27.32 27.31 13.57 13.57 27.31-27.32a9.58 9.58 0 0 0 0-13.56zm1.45 6.78a8.18 8.18 0 0 1 -2.41 5.83l-26.35 26.35-11.65-11.65 26.35-26.36a8.24 8.24 0 0 1 14.06 5.83z"/><path d="m.06 47.81a1.73 1.73 0 0 0 .45 1.68 1.71 1.71 0 0 0 1.22.51 1.74 1.74 0 0 0 .45-.06l17-4.56-14.56-14.59zm1.31.35 4-14.76 11.23 11.28-14.77 4a.36.36 0 0 1 -.23 0 .35.35 0 0 1 -.13-.08.33.33 0 0 1 -.1-.17.34.34 0 0 1 0-.27z"/></svg>