<svg viewBox="0 0 48.66 50" xmlns="http://www.w3.org/2000/svg"><path d="m0 .67h48.66v48.66h-48.66z" fill="none"/><path d="m41 2a1.18 1.18 0 0 0 -1-.59h-31.31a1.19 1.19 0 0 0 -1 1.78l13.31 23.13v21.14l6.68-3.93v-17.21l.06-.11 13.26-22.98a1.2 1.2 0 0 0 0-1.23z" fill="none"/><path d="m42.26 1.32a2.62 2.62 0 0 0 -2.26-1.32h-31.31a2.59 2.59 0 0 0 -2.28 1.32 2.6 2.6 0 0 0 0 2.68l13.13 22.71v23.29l9.58-5.64v-17.65l13.14-22.71a2.65 2.65 0 0 0 0-2.68zm-14.53 24.89-.06.11v17.21l-6.67 3.93v-21.14l-13.34-23.09a1.19 1.19 0 0 1 1-1.78h31.34a1.18 1.18 0 0 1 1 .55 1.2 1.2 0 0 1 0 1.19z"/></svg>