<svg viewBox="0 0 50 49.99" xmlns="http://www.w3.org/2000/svg"><g fill="none"><path d="m29.29 35.34a16.4 16.4 0 0 0 -3.51-8.47 16.42 16.42 0 0 0 3.51 8.47z"/><path d="m24.22 26.88a16.53 16.53 0 0 0 -3.51 8.47 16.46 16.46 0 0 0 3.51-8.47z"/><path d="m14.64 29.28a16.46 16.46 0 0 0 8.49-3.51 16.49 16.49 0 0 0 -8.49 3.51z"/><path d="m35.35 29.28a16.42 16.42 0 0 0 -8.47-3.51 16.4 16.4 0 0 0 8.47 3.51z"/><path d="m35.35 20.71a16.4 16.4 0 0 0 -8.46 3.5 16.5 16.5 0 0 0 8.46-3.5z"/><path d="m25.78 23.11a16.36 16.36 0 0 0 3.51-8.47 16.46 16.46 0 0 0 -3.51 8.47z"/><path d="m20.72 14.64a16.43 16.43 0 0 0 3.5 8.47 16.45 16.45 0 0 0 -3.5-8.47z"/><path d="m30.7 13.09a17.81 17.81 0 0 1 -2.26 8.47 17.77 17.77 0 0 1 8.46-2.26 16.5 16.5 0 0 0 4.62-10.83 16.5 16.5 0 0 0 -10.82 4.62z"/><path d="m14.65 20.7a16.46 16.46 0 0 0 8.47 3.51 16.53 16.53 0 0 0 -8.47-3.51z"/><path d="m37.44 20.61a17.74 17.74 0 0 1 -7.58 4.39 17.85 17.85 0 0 1 7.59 4.39 16.48 16.48 0 0 0 10.91-4.39 16.48 16.48 0 0 0 -10.92-4.39z"/><path d="m36.9 30.69a17.77 17.77 0 0 1 -8.46-2.26 17.77 17.77 0 0 1 2.26 8.46 16.51 16.51 0 0 0 10.82 4.63 16.45 16.45 0 0 0 -4.62-10.83z"/><path d="m29.39 37.44a17.85 17.85 0 0 1 -4.39-7.59 17.83 17.83 0 0 1 -4.38 7.59 16.43 16.43 0 0 0 4.38 10.92 16.49 16.49 0 0 0 4.39-10.92z"/><path d="m20.62 12.55a17.71 17.71 0 0 1 4.38 7.59 17.73 17.73 0 0 1 4.39-7.59 16.49 16.49 0 0 0 -4.39-10.92 16.43 16.43 0 0 0 -4.38 10.92z"/><path d="m13.1 19.29a17.82 17.82 0 0 1 8.47 2.27 17.82 17.82 0 0 1 -2.27-8.47 16.5 16.5 0 0 0 -10.82-4.62 16.45 16.45 0 0 0 4.62 10.82z"/><path d="m19.3 36.9a17.82 17.82 0 0 1 2.27-8.47 17.81 17.81 0 0 1 -8.47 2.26 16.45 16.45 0 0 0 -4.62 10.83 16.48 16.48 0 0 0 10.82-4.62z"/><path d="m12.55 29.38a17.82 17.82 0 0 1 7.6-4.38 17.71 17.71 0 0 1 -7.59-4.38 16.43 16.43 0 0 0 -10.92 4.38 16.47 16.47 0 0 0 10.91 4.38z"/></g><path d="m24 25c-.26 0-.53 0-.8-.07l.34.07-.34.07z" fill="#0a0a0a"/><path d="m25.07 23.15-.07.34-.06-.34c0 .26 0 .53.06.8 0-.27 0-.54.07-.8z" fill="#0a0a0a"/><path d="m24.94 26.84.06-.35.07.35c0-.27-.05-.54-.07-.81 0 .27 0 .54-.06.81z" fill="#0a0a0a"/><path d="m26 25 .81.07-.31-.07.35-.07c-.27.07-.54.07-.85.07z" fill="#0a0a0a"/><path d="m25.74 25.73c.18.2.35.41.52.62l-.2-.3.29.2z" fill="#0a0a0a"/><path d="m24.27 25.73c-.2.18-.41.35-.62.52l.29-.2-.19.3c.17-.21.34-.42.52-.62z" fill="#0a0a0a"/><path d="m25.74 24.26c.2-.18.41-.35.62-.52l-.3.19.2-.29c-.17.21-.34.42-.52.62z" fill="#0a0a0a"/><path d="m24.27 24.26c-.18-.2-.35-.41-.52-.62l.19.29-.29-.19c.21.17.42.34.62.52z" fill="#0a0a0a"/><path d="m49.8 24.52a17.87 17.87 0 0 0 -11.19-5.17 17.83 17.83 0 0 0 4.26-11.56.67.67 0 0 0 -.67-.67 17.85 17.85 0 0 0 -11.56 4.26 17.84 17.84 0 0 0 -5.17-11.19.68.68 0 0 0 -.94 0 17.84 17.84 0 0 0 -5.17 11.19 17.83 17.83 0 0 0 -11.56-4.26.67.67 0 0 0 -.67.67 17.83 17.83 0 0 0 4.26 11.56 17.87 17.87 0 0 0 -11.19 5.17.66.66 0 0 0 0 .95 17.8 17.8 0 0 0 11.18 5.16 17.87 17.87 0 0 0 -4.25 11.57.67.67 0 0 0 .67.67 17.83 17.83 0 0 0 11.56-4.26 17.87 17.87 0 0 0 5.17 11.19.68.68 0 0 0 .94 0 17.87 17.87 0 0 0 5.17-11.19 17.85 17.85 0 0 0 11.56 4.26.67.67 0 0 0 .67-.67 17.87 17.87 0 0 0 -4.25-11.57 17.8 17.8 0 0 0 11.18-5.16.66.66 0 0 0 0-.95zm-24.8 2-.06.35c0-.27 0-.54.06-.81 0 .27 0 .54.07.81zm0-3 .07-.34c0 .26-.05.53-.07.8 0-.27 0-.54-.06-.8zm1.26 2.86c-.17-.21-.34-.42-.52-.62l.61.52-.29-.2zm-2.61-.1c.21-.17.42-.34.62-.52-.18.2-.35.41-.52.62l.19-.3zm-.49-1.33c.27 0 .54.06.8.07l-.8.07.34-.09zm.59-1.28c.17.21.34.42.52.62-.2-.18-.41-.35-.62-.52l.29.19zm2.61.1c-.21.17-.42.34-.62.52.18-.2.35-.41.52-.62l-.2.29zm.49 1.32-.85-.09c.27 0 .54 0 .81-.07l-.31.07zm0-.85a16.4 16.4 0 0 1 8.46-3.5 16.5 16.5 0 0 1 -8.42 3.47zm2.4-9.57a16.36 16.36 0 0 1 -3.51 8.47 16.46 16.46 0 0 1 3.55-8.5zm-5.07 8.47a16.43 16.43 0 0 1 -3.5-8.47 16.45 16.45 0 0 1 3.54 8.44zm-1.1 1.1a16.46 16.46 0 0 1 -8.47-3.51 16.53 16.53 0 0 1 8.51 3.48zm0 1.56a16.46 16.46 0 0 1 -8.49 3.51 16.49 16.49 0 0 1 8.54-3.54zm-2.42 9.58a16.53 16.53 0 0 1 3.51-8.47 16.46 16.46 0 0 1 -3.46 8.44zm5.07-8.48a16.4 16.4 0 0 1 3.51 8.47 16.42 16.42 0 0 1 -3.46-8.5zm1.1-1.1a16.42 16.42 0 0 1 8.47 3.51 16.4 16.4 0 0 1 -8.42-3.54zm1.56-4.21a17.81 17.81 0 0 0 2.26-8.47 16.5 16.5 0 0 1 10.87-4.65 16.5 16.5 0 0 1 -4.62 10.83 17.77 17.77 0 0 0 -8.46 2.26zm-3.39-1.45a17.71 17.71 0 0 0 -4.38-7.59 16.43 16.43 0 0 1 4.38-10.92 16.49 16.49 0 0 1 4.39 10.92 17.73 17.73 0 0 0 -4.39 7.59zm-3.43 1.42a17.82 17.82 0 0 0 -8.47-2.27 16.45 16.45 0 0 1 -4.62-10.82 16.5 16.5 0 0 1 10.82 4.62 17.82 17.82 0 0 0 2.27 8.47zm-1.42 3.44a17.82 17.82 0 0 0 -7.6 4.39 16.47 16.47 0 0 1 -10.91-4.39 16.43 16.43 0 0 1 10.92-4.38 17.71 17.71 0 0 0 7.59 4.38zm1.42 3.44a17.82 17.82 0 0 0 -2.27 8.46 16.48 16.48 0 0 1 -10.82 4.62 16.45 16.45 0 0 1 4.62-10.83 17.81 17.81 0 0 0 8.47-2.26zm3.43 1.41a17.85 17.85 0 0 0 4.39 7.59 16.49 16.49 0 0 1 -4.39 10.92 16.43 16.43 0 0 1 -4.38-10.92 17.83 17.83 0 0 0 4.38-7.59zm3.44-1.42a17.77 17.77 0 0 0 8.46 2.26 16.45 16.45 0 0 1 4.62 10.83 16.51 16.51 0 0 1 -10.82-4.63 17.77 17.77 0 0 0 -2.26-8.46zm1.42-3.43a17.74 17.74 0 0 0 7.58-4.38 16.48 16.48 0 0 1 10.92 4.38 16.48 16.48 0 0 1 -10.91 4.39 17.85 17.85 0 0 0 -7.59-4.39z" fill="#212121"/></svg>