<svg viewBox="0 0 50 50" xmlns="http://www.w3.org/2000/svg"><path d="m49.8 24.52a17.8 17.8 0 0 0 -11.18-5.16 17.86 17.86 0 0 0 4.26-11.57.67.67 0 0 0 -.67-.67 17.86 17.86 0 0 0 -11.57 4.26 18 18 0 0 0 -5.16-11.19.7.7 0 0 0 -.95 0 17.81 17.81 0 0 0 -5.17 11.19 17.83 17.83 0 0 0 -11.56-4.26.67.67 0 0 0 -.67.67 17.86 17.86 0 0 0 4.26 11.57 17.79 17.79 0 0 0 -11.19 5.17.65.65 0 0 0 0 .94 17.82 17.82 0 0 0 11.18 5.17 17.88 17.88 0 0 0 -4.25 11.56.67.67 0 0 0 .67.67 17.83 17.83 0 0 0 11.56-4.26 17.79 17.79 0 0 0 5.17 11.19.66.66 0 0 0 .47.2.7.7 0 0 0 .49-.2 17.93 17.93 0 0 0 5.16-11.19 17.86 17.86 0 0 0 11.57 4.26.67.67 0 0 0 .67-.67 17.83 17.83 0 0 0 -4.26-11.56 17.82 17.82 0 0 0 11.17-5.17.66.66 0 0 0 0-.95z" fill="#0a0a0a"/></svg>