<svg viewBox="0 0 50 50" xmlns="http://www.w3.org/2000/svg"><g fill="none"><path d="m0 0h50v50h-50z" transform="matrix(0 -1 1 0 0 50)"/><path d="m25 41.93a3.56 3.56 0 0 0 -3.53 3.15 3 3 0 0 0 0 .41 3.56 3.56 0 1 0 7.11 0c0-.12 0-.26 0-.41a3.57 3.57 0 0 0 -3.58-3.15z"/><path d="m38.4 25a7.13 7.13 0 0 1 5-6.78 19.57 19.57 0 0 0 -11.64-11.71 7.08 7.08 0 0 1 -13.59 0 19.59 19.59 0 0 0 -11.66 11.66 7.08 7.08 0 0 1 0 13.59 19.63 19.63 0 0 0 11.67 11.67 7.08 7.08 0 0 1 13.56 0 19.6 19.6 0 0 0 11.68-11.69 7.13 7.13 0 0 1 -5.02-6.74z"/><path d="m25 8.07a3.54 3.54 0 0 0 3.5-3.21c0-.12 0-.24 0-.35a3.56 3.56 0 1 0 -7.11 0v.35a3.55 3.55 0 0 0 3.61 3.21z"/><path d="m4.86 21.43a2.11 2.11 0 0 0 -.35 0 3.56 3.56 0 1 0 0 7.11 2.11 2.11 0 0 0 .35 0 3.55 3.55 0 0 0 2.68-1.65 3.67 3.67 0 0 0 .53-1.89 3.54 3.54 0 0 0 -3.21-3.57z"/><path d="m45.49 21.41h-.41a3.56 3.56 0 0 0 0 7.07h.41a3.56 3.56 0 1 0 0-7.11z"/></g><path d="m39.36 25a6.18 6.18 0 0 1 5.16-6.06h.15l-.05-.14a20.63 20.63 0 0 0 -13.43-13.49h-.14v.14a6.13 6.13 0 0 1 -12.13 0v-.14h-.14a20.62 20.62 0 0 0 -13.47 13.43v.14h.15a6.13 6.13 0 0 1 -.05 12.12h-.15v.14a20.61 20.61 0 0 0 13.49 13.48l.13.05v-.14a6.13 6.13 0 0 1 12.11 0v.14l.14-.05a20.6 20.6 0 0 0 13.49-13.44l.05-.14h-.15a6.18 6.18 0 0 1 -5.16-6.04zm-7.62 18.43a7.08 7.08 0 0 0 -13.56 0 19.63 19.63 0 0 1 -11.67-11.67 7.08 7.08 0 0 0 0-13.59 19.59 19.59 0 0 1 11.66-11.66 7.08 7.08 0 0 0 13.59 0 19.57 19.57 0 0 1 11.66 11.68 7.08 7.08 0 0 0 0 13.55 19.6 19.6 0 0 1 -11.68 11.69z"/><path d="m25 9a4.5 4.5 0 0 0 4.45-4 3.39 3.39 0 0 0 0-.44 4.51 4.51 0 1 0 -9 0 3.64 3.64 0 0 0 0 .45 4.48 4.48 0 0 0 4.55 3.99zm-3.59-4.49a3.56 3.56 0 1 1 7.11 0v.35a3.56 3.56 0 0 1 -7.08 0c-.03-.12-.03-.24-.03-.35z"/><path d="m25 41a4.51 4.51 0 0 0 -4.48 4 4.63 4.63 0 0 0 0 .51 4.51 4.51 0 1 0 9 0 4.77 4.77 0 0 0 0-.51 4.5 4.5 0 0 0 -4.52-4zm3.56 4.51a3.56 3.56 0 1 1 -7.11 0 3 3 0 0 1 0-.41 3.56 3.56 0 0 1 7.07 0c-.01.13 0 .27 0 .39z"/><path d="m9 25a4.49 4.49 0 0 0 -4-4.52 3.31 3.31 0 0 0 -.44 0 4.51 4.51 0 0 0 0 9 3.15 3.15 0 0 0 .44 0 4.48 4.48 0 0 0 4-4.48zm-4.14 3.5a2.11 2.11 0 0 1 -.35 0 3.56 3.56 0 1 1 0-7.11 2.11 2.11 0 0 1 .35 0 3.54 3.54 0 0 1 3.21 3.61 3.67 3.67 0 0 1 -.53 1.88 3.55 3.55 0 0 1 -2.68 1.62z"/><path d="m45.49 20.46h-.52a4.5 4.5 0 0 0 0 9 3.37 3.37 0 0 0 .52 0 4.51 4.51 0 0 0 0-9zm3.56 4.54a3.56 3.56 0 0 1 -3.56 3.55h-.41a3.56 3.56 0 0 1 0-7.07h.41a3.56 3.56 0 0 1 3.56 3.52z"/></svg>