<svg viewBox="0 0 50 45.13" xmlns="http://www.w3.org/2000/svg"><path d="m16 .92a11.54 11.54 0 0 1 7.23 2.55l2.32 1.86 1.88-1.56a11.56 11.56 0 0 1 14.15-.45l.94.69a15.85 15.85 0 0 1 1.91 24l-13.71 13.77a8.32 8.32 0 0 1 -11.75 0l-13.4-13.4a15.87 15.87 0 0 1 2.21-24.27l1.66-1.11a11.51 11.51 0 0 1 6.56-2.08m0-.43a11.9 11.9 0 0 0 -6.81 2.12l-1.66 1.14a16.31 16.31 0 0 0 -2.27 24.94l13.4 13.39a8.74 8.74 0 0 0 12.36 0l13.72-13.71a16.29 16.29 0 0 0 -2-24.71l-1-.69a12 12 0 0 0 -14.68.47l-1.52 1.33-2-1.64a12.06 12.06 0 0 0 -7.54-2.64z"/><path d="m24.84 45.13a9.19 9.19 0 0 1 -6.53-2.7l-13.39-13.43a16.77 16.77 0 0 1 2.34-25.65l1.65-1.14a12.37 12.37 0 0 1 7.09-2.21 12.52 12.52 0 0 1 7.81 2.75l1.73 1.39 1.3-1.08a12.5 12.5 0 0 1 15.28-.49l1 .69a16.78 16.78 0 0 1 2 25.46l-13.75 13.71a9.17 9.17 0 0 1 -6.53 2.7zm-8.84-43.71a11 11 0 0 0 -6.29 2l-1.65 1.09a15.37 15.37 0 0 0 -2.14 23.49l13.39 13.4a7.82 7.82 0 0 0 11.06 0l13.71-13.68a15.36 15.36 0 0 0 -1.84-23.31l-1-.69a11.06 11.06 0 0 0 -13.55.43l-2.14 1.85-2.62-2.15a11.12 11.12 0 0 0 -6.93-2.43z"/></svg>