<svg viewBox="0 0 50 50" xmlns="http://www.w3.org/2000/svg"><path d="m0 0h50v50h-50z" fill="none"/><path d="m25 50a25 25 0 1 0 -25-25 25 25 0 0 0 25 25zm1.49-8.41a3.42 3.42 0 0 1 -2.48 1 3.61 3.61 0 0 1 -1.81-.46 3.49 3.49 0 0 1 -1.29-1.27 3.47 3.47 0 0 1 0-3.49 3.37 3.37 0 0 1 1.29-1.27 3.62 3.62 0 0 1 1.8-.47 3.53 3.53 0 0 1 3.52 3.5 3.33 3.33 0 0 1 -1.03 2.46zm-6.95-33.06a12.13 12.13 0 0 1 5.27-1.13 11.71 11.71 0 0 1 2.91.35 9.58 9.58 0 0 1 2.64 1.1 8.88 8.88 0 0 1 2.15 1.79 7.76 7.76 0 0 1 1.49 2.54 9.67 9.67 0 0 1 .53 3.25 9.46 9.46 0 0 1 -.38 2.57 8.85 8.85 0 0 1 -1 2.22 13.88 13.88 0 0 1 -1.25 1.78 22.14 22.14 0 0 1 -1.54 1.64l-1.12 1c-.49.45-.86.81-1.12 1.06s-.54.58-.86.94a4.66 4.66 0 0 0 -.69 1 2.6 2.6 0 0 0 -.26 1l-.11 2h-4.64v-2.35a6.11 6.11 0 0 1 .06-.86q.07-.42.15-.78a4.21 4.21 0 0 1 .23-.65c.13-.28.24-.51.34-.7a4.91 4.91 0 0 1 .45-.68c.19-.27.35-.48.48-.64s.3-.38.55-.66l.54-.6.61-.64.58-.61a16.34 16.34 0 0 0 2.23-2.84 5.61 5.61 0 0 0 .77-2.9 4 4 0 0 0 -1.17-3 4.3 4.3 0 0 0 -3-1.08 5.64 5.64 0 0 0 -2.72.73 6.3 6.3 0 0 0 -2.22 2l-3.91-3.63a10.74 10.74 0 0 1 4.01-3.22z"/></svg>