<svg viewBox="0 0 50 50" xmlns="http://www.w3.org/2000/svg"><g fill="none"><path d="m0 0h50v50h-50z"/><path d="m27.47 26.11c.26-.25.63-.61 1.11-1.05l1.08-1c.54-.53 1-1 1.43-1.53a14.37 14.37 0 0 0 1.18-1.65 7.42 7.42 0 0 0 .84-1.95 8.19 8.19 0 0 0 .29-2.24 8.57 8.57 0 0 0 -.46-2.88 6.86 6.86 0 0 0 -1.25-2.21 7.69 7.69 0 0 0 -1.9-1.6 8.47 8.47 0 0 0 -2.34-1 11 11 0 0 0 -2.64-.32 11.09 11.09 0 0 0 -4.77 1 9.88 9.88 0 0 0 -3.15 2.32l2.62 2.44a7.07 7.07 0 0 1 1.87-1.44 6.34 6.34 0 0 1 3-.8 4.91 4.91 0 0 1 3.48 1.26 4.58 4.58 0 0 1 1.38 3.54 6.13 6.13 0 0 1 -.85 3.2 16.94 16.94 0 0 1 -2.26 2.89l-.57.59-.58.62c-.12.12-.29.31-.52.57s-.38.44-.49.59l-.46.61a5.27 5.27 0 0 0 -.37.56c-.09.17-.19.39-.32.65a3 3 0 0 0 -.21.58c-.05.21-.09.45-.13.71a4.14 4.14 0 0 0 -.06.7v1.51h3l.07-1.26a3.33 3.33 0 0 1 .31-1.25 5.17 5.17 0 0 1 .79-1.18q.49-.59.88-.98z"/><path d="m24 36.08a2.76 2.76 0 0 0 -1.37.35 2.5 2.5 0 0 0 -1 1 2.65 2.65 0 0 0 -.35 1.31 2.52 2.52 0 0 0 .43 1.26 2.57 2.57 0 0 0 1 1 2.76 2.76 0 0 0 1.37.35 2.51 2.51 0 0 0 1.86-.77 2.41 2.41 0 0 0 .77-1.82 2.44 2.44 0 0 0 -.78-1.84 2.47 2.47 0 0 0 -1.93-.84z"/><path d="m25 1.56a23.45 23.45 0 1 0 23.44 23.44 23.46 23.46 0 0 0 -23.44-23.44zm2 40.07a4.08 4.08 0 0 1 -3 1.2 4.26 4.26 0 0 1 -2.14-.55 4.21 4.21 0 0 1 -1.54-1.51 4.14 4.14 0 0 1 0-4.16 4 4 0 0 1 1.54-1.53 4.27 4.27 0 0 1 2.14-.56 4.05 4.05 0 0 1 3 1.23 4.12 4.12 0 0 1 0 5.88zm7.63-22.28a8.81 8.81 0 0 1 -1 2.35 16.28 16.28 0 0 1 -1.3 1.83c-.44.51-1 1.07-1.55 1.65l-1.1 1c-.47.43-.82.77-1.07 1s-.5.53-.79.87a3.67 3.67 0 0 0 -.56.83 1.84 1.84 0 0 0 -.17.67l-.15 2.73h-6v-3.05a6.11 6.11 0 0 1 .07-1c0-.29.1-.56.16-.8a3.9 3.9 0 0 1 .32-.9c.13-.29.24-.52.34-.71a7.47 7.47 0 0 1 .5-.77l.47-.62c.13-.17.32-.4.57-.68l.55-.6.59-.63.49-.52a15.76 15.76 0 0 0 2-2.6 4.66 4.66 0 0 0 .69-2.4 3 3 0 0 0 -.88-2.36 3.43 3.43 0 0 0 -2.42-.85 4.7 4.7 0 0 0 -2.26.62 5.29 5.29 0 0 0 -1.88 1.7l-.51.75-5-4.62.43-.57a11.36 11.36 0 0 1 4.17-3.31 13.09 13.09 0 0 1 8.46-.81 10.67 10.67 0 0 1 2.8 1.13 9.43 9.43 0 0 1 2.26 1.9 8.35 8.35 0 0 1 1.55 2.71 10.36 10.36 0 0 1 .55 3.4 10 10 0 0 1 -.35 2.66z"/></g><path d="m25 0a25 25 0 1 0 25 25 25 25 0 0 0 -25-25zm23.44 25a23.44 23.44 0 1 1 -23.44-23.44 23.47 23.47 0 0 1 23.44 23.44z"/><path d="m24 34.52a4.27 4.27 0 0 0 -2.14.56 4 4 0 0 0 -1.54 1.53 4.14 4.14 0 0 0 0 4.16 4.21 4.21 0 0 0 1.54 1.51 4.26 4.26 0 0 0 2.14.55 4.08 4.08 0 0 0 3-1.2 4.12 4.12 0 0 0 0-5.88 4.05 4.05 0 0 0 -3-1.23zm2.63 4.17a2.41 2.41 0 0 1 -.77 1.82 2.51 2.51 0 0 1 -1.86.77 2.76 2.76 0 0 1 -1.37-.35 2.57 2.57 0 0 1 -1-1 2.52 2.52 0 0 1 -.35-1.29 2.65 2.65 0 0 1 .35-1.31 2.5 2.5 0 0 1 1-1 2.76 2.76 0 0 1 1.37-.25 2.47 2.47 0 0 1 1.85.77 2.44 2.44 0 0 1 .82 1.84z"/><path d="m32.86 10.58a9.43 9.43 0 0 0 -2.26-1.9 10.67 10.67 0 0 0 -2.77-1.15 13.09 13.09 0 0 0 -8.46.81 11.36 11.36 0 0 0 -4.17 3.31l-.43.57 5 4.62.51-.75a5.29 5.29 0 0 1 1.88-1.7 4.7 4.7 0 0 1 2.26-.62 3.43 3.43 0 0 1 2.42.85 3 3 0 0 1 .85 2.38 4.66 4.66 0 0 1 -.63 2.41 15.76 15.76 0 0 1 -2.06 2.59l-.57.6-.59.63-.55.6c-.25.28-.44.51-.57.68l-.47.62a7.47 7.47 0 0 0 -.5.77c-.1.19-.21.42-.34.71a3.9 3.9 0 0 0 -.32.9c-.06.24-.11.51-.16.8a6.11 6.11 0 0 0 -.07 1v3.05h6l.15-2.73a1.84 1.84 0 0 1 .17-.67 3.67 3.67 0 0 1 .56-.83c.29-.34.56-.63.79-.87s.6-.58 1.07-1l1.1-1c.59-.58 1.11-1.14 1.55-1.65a16.28 16.28 0 0 0 1.3-1.83 8.81 8.81 0 0 0 1-2.35 10 10 0 0 0 .45-2.74 10.36 10.36 0 0 0 -.55-3.4 8.35 8.35 0 0 0 -1.59-2.71zm-7 17.67a3.33 3.33 0 0 0 -.31 1.25l-.07 1.26h-3v-1.51a4.14 4.14 0 0 1 .06-.7c0-.26.08-.5.13-.71a3 3 0 0 1 .21-.58c.13-.26.23-.48.32-.65a5.27 5.27 0 0 1 .37-.56l.46-.61c.11-.15.27-.34.49-.59s.4-.45.52-.57l.58-.62.57-.59a16.94 16.94 0 0 0 2.26-2.89 6.13 6.13 0 0 0 .85-3.2 4.58 4.58 0 0 0 -1.37-3.5 4.91 4.91 0 0 0 -3.48-1.26 6.34 6.34 0 0 0 -3 .8 7.07 7.07 0 0 0 -1.87 1.48l-2.62-2.44a9.88 9.88 0 0 1 3.04-2.32 11.09 11.09 0 0 1 4.77-1 11 11 0 0 1 2.68.26 8.47 8.47 0 0 1 2.34 1 7.69 7.69 0 0 1 1.9 1.58 6.86 6.86 0 0 1 1.25 2.21 8.57 8.57 0 0 1 .46 2.88 8.19 8.19 0 0 1 -.29 2.24 7.42 7.42 0 0 1 -.84 1.95 14.37 14.37 0 0 1 -1.18 1.65c-.4.48-.89 1-1.43 1.53l-1.08 1c-.48.44-.85.8-1.11 1.05s-.55.58-.87 1a5.17 5.17 0 0 0 -.79 1.16z"/></svg>