<svg viewBox="0 0 51 51" xmlns="http://www.w3.org/2000/svg"><g fill="none"><path d="m.5.5h50v50h-50z"/><path d="m26.86 31.19.89-22.11h-4.23l.87 22.11z"/><path d="m25.52 36.62a2.77 2.77 0 0 0 -1.39.36 2.54 2.54 0 0 0 -1 1 2.6 2.6 0 0 0 -.36 1.33 2.43 2.43 0 0 0 .79 1.86 2.59 2.59 0 0 0 1.94.78 2.54 2.54 0 0 0 1.9-.78 2.43 2.43 0 0 0 .79-1.86 2.48 2.48 0 0 0 -.79-1.87 2.56 2.56 0 0 0 -1.88-.82z"/><path d="m25.5 1.59a23.91 23.91 0 1 0 23.91 23.91 23.93 23.93 0 0 0 -23.91-23.91zm3.9 5.9-1 25.29h-5.54l-1-25.29zm-.87 34.79a4.17 4.17 0 0 1 -3 1.23 4.21 4.21 0 0 1 -3.05-1.23 4 4 0 0 1 -1.26-3 4.16 4.16 0 0 1 .57-2.12 4.1 4.1 0 0 1 1.56-1.56 4.35 4.35 0 0 1 2.17-.6 4.13 4.13 0 0 1 3 1.25 4.18 4.18 0 0 1 0 6z"/></g><path d="m25.5 0a25.5 25.5 0 1 0 25.5 25.5 25.53 25.53 0 0 0 -25.5-25.5zm23.91 25.5a23.91 23.91 0 1 1 -23.91-23.91 23.93 23.93 0 0 1 23.91 23.91z"/><path d="m25.52 35a4.35 4.35 0 0 0 -2.18.57 4.1 4.1 0 0 0 -1.56 1.56 4.16 4.16 0 0 0 -.57 2.12 4 4 0 0 0 1.26 3 4.21 4.21 0 0 0 3.05 1.23 4.17 4.17 0 0 0 3-1.23 4.18 4.18 0 0 0 0-6 4.13 4.13 0 0 0 -3-1.25zm2.69 4.25a2.43 2.43 0 0 1 -.79 1.86 2.54 2.54 0 0 1 -1.9.78 2.59 2.59 0 0 1 -1.94-.78 2.43 2.43 0 0 1 -.79-1.86 2.6 2.6 0 0 1 .36-1.25 2.54 2.54 0 0 1 1-1 2.77 2.77 0 0 1 1.39-.36 2.56 2.56 0 0 1 1.9.79 2.48 2.48 0 0 1 .77 1.85z"/><path d="m28.39 32.78 1-25.29h-7.52l1 25.29zm-.64-23.7-.89 22.11h-2.47l-.87-22.11z"/></svg>