<svg viewBox="0 0 50 50" xmlns="http://www.w3.org/2000/svg"><path d="m0 0h50v50h-50z" fill="none"/><g fill="#0a0a0a"><path d="m9.5 38a.86.86 0 0 0 -1.22 1.22l2.55 2.55a.87.87 0 0 0 1.23 0 .88.88 0 0 0 0-1.22z"/><circle cx="14.9" cy="35.12" r="4.4"/><path d="m49.85 6.93-1.47-1.25 1.09-1.09a.83.83 0 0 0 0-1.17l-2.87-2.86a.82.82 0 0 0 -1.17 0l-1.09 1.09-1.28-1.52a.38.38 0 0 0 -.56 0l-.37.37a.38.38 0 0 0 0 .56l1.52 1.28-1.6 1.6-1.28-1.52a.38.38 0 0 0 -.56 0l-.37.37a.39.39 0 0 0 0 .56l1.51 1.28-1.73 1.74a.83.83 0 0 0 0 1.17l.38.46-15.41 15.39a14.48 14.48 0 0 0 -19.35.92l-.06.05a14.48 14.48 0 0 0 -3.6 4.51 14.13 14.13 0 0 0 -1.58 5.73 14.35 14.35 0 0 0 .94 6 14.7 14.7 0 0 0 3.33 5.13l1.15 1c.4.32.82.61 1.24.91s.89.51 1.34.77.93.42 1.4.62a14.63 14.63 0 0 0 6 .94 14.3 14.3 0 0 0 5.73-1.55 14.47 14.47 0 0 0 4.46-3.54h.05a14.5 14.5 0 0 0 1-19.4l15.44-15.48.41.41a.83.83 0 0 0 1.17 0l1.75-1.75 1.25 1.47a.38.38 0 0 0 .56 0l.37-.36a.38.38 0 0 0 0-.56l-1.5-1.21 1.61-1.64 1.3 1.48a.38.38 0 0 0 .56 0l.37-.37a.39.39 0 0 0 -.08-.54zm-34.43 38.77a12.07 12.07 0 0 1 -8.42-19.57v-.05a12 12 0 0 1 15.83-.92l-4.18 4.18a1.45 1.45 0 1 0 2.05 2l4.17-4.17a12 12 0 0 1 -1 15.87v.05a12.11 12.11 0 0 1 -8.45 2.61z"/></g></svg>