<svg viewBox="0 0 50 50" xmlns="http://www.w3.org/2000/svg"><path d="m0 0h50v50h-50z" fill="none"/><g fill="#0a0a0a"><path d="m8.89 37.72a.86.86 0 0 0 -.61 1.47l2.55 2.55a.86.86 0 0 0 1.23 0 .88.88 0 0 0 0-1.22l-2.56-2.52a.85.85 0 0 0 -.61-.25z"/><path d="m14.9 32a3.16 3.16 0 1 1 -3.15 3.16 3.16 3.16 0 0 1 3.15-3.16m0-1.24a4.4 4.4 0 1 0 4.41 4.4 4.4 4.4 0 0 0 -4.41-4.4z"/><path d="m46 1.73 2.3 2.27-.53.52-1 1-1.28 1.29-1 1-.23.19-1.19 1.23-.07-.12-.88-.88-.88.88-15.49 15.45-.78.78-1 1-4.16 4.16a.21.21 0 0 1 -.15.06.2.2 0 0 1 -.14-.06.19.19 0 0 1 0-.28l4.18-4.22 1-1 .8-.8 15.41-15.37.88-.83-.88-.88-.12-.12 1.47-1.46.67-.68 1.61-1.66 1-1zm-30.57 19.64a13 13 0 0 1 8.36 3l-.24-.19a13 13 0 0 0 -8.15-2.82m-9.33 3.88v.05s0 0 0 .06a13.3 13.3 0 0 0 9.35 21.59h1a13.38 13.38 0 0 0 8.3-2.88 13.44 13.44 0 0 1 -4.07 3.25 13.32 13.32 0 0 1 -5.24 1.41h-.72a13.38 13.38 0 0 1 -4.72-.87l-.37-.16c-.32-.14-.63-.27-.92-.41l-.39-.22c-.29-.16-.57-.31-.83-.48l-.25-.18c-.32-.22-.61-.43-.9-.66l-1.09-1a13.58 13.58 0 0 1 -3-4.68 13.19 13.19 0 0 1 .55-10.71 13.27 13.27 0 0 1 3.23-4.03v-.05m19.61 1a13.41 13.41 0 0 1 1.77 2.85 13.15 13.15 0 0 0 -1.61-2.64zm.5 16.09a13.8 13.8 0 0 1 -1 1.26 13.8 13.8 0 0 0 1-1.26m16.66-42.36a.39.39 0 0 0 -.27.11l-.37.37a.38.38 0 0 0 0 .56l1.52 1.28-1.6 1.62-1.28-1.52a.39.39 0 0 0 -.56 0l-.37.37a.38.38 0 0 0 0 .56l1.51 1.28-1.73 1.74a.83.83 0 0 0 0 1.17l.38.46-15.41 15.39a14.48 14.48 0 0 0 -19.35.92l-.06.05a14.48 14.48 0 0 0 -3.6 4.51 14.13 14.13 0 0 0 -1.58 5.73 14.35 14.35 0 0 0 .94 6 14.7 14.7 0 0 0 3.33 5.13l1.15 1c.4.32.82.61 1.24.91s.89.51 1.34.77.93.42 1.4.62a14.46 14.46 0 0 0 5.19 1h.79a14.3 14.3 0 0 0 5.73-1.55 14.47 14.47 0 0 0 4.46-3.54h.05a14.5 14.5 0 0 0 1-19.4l15.46-15.54.41.41a.82.82 0 0 0 .58.24.84.84 0 0 0 .59-.24l1.75-1.75 1.25 1.47a.38.38 0 0 0 .29.14.36.36 0 0 0 .27-.12l.37-.36a.38.38 0 0 0 0-.56l-1.5-1.23 1.61-1.64 1.3 1.48a.36.36 0 0 0 .29.13.43.43 0 0 0 .27-.11l.37-.37a.39.39 0 0 0 0-.56l-1.55-1.25 1.09-1.09a.83.83 0 0 0 0-1.17l-2.87-2.86a.82.82 0 0 0 -.6-.24.84.84 0 0 0 -.59.24l-1.07 1.09-1.28-1.52a.43.43 0 0 0 -.29-.13zm-26.43 45.74c-.31 0-.61 0-.92 0a12.07 12.07 0 0 1 -8.42-19.61v-.05a12 12 0 0 1 15.83-.92l-4.18 4.18a1.45 1.45 0 0 0 1 2.47 1.49 1.49 0 0 0 1-.43l4.17-4.17a12 12 0 0 1 -1 15.87v.05a12.09 12.09 0 0 1 -7.52 2.61z"/></g></svg>