<svg viewBox="0 0 50 50" xmlns="http://www.w3.org/2000/svg"><g fill="#0a0a0a"><path d="m14.86 28.5.25.17c0-.12 0-.24 0-.36v-.06z"/><path d="m15.13 28.31a.38.38 0 0 0 0-.1z"/><path d="m36.47 29.46c-.1-1.44-.84-1.26-1.32-1 0-.17 0-.34 0-.51a9.47 9.47 0 0 0 .95-4.44 29.53 29.53 0 0 0 -3.68-.51c-4.59-.44-12.18-.15-17.28 5.23a.38.38 0 0 1 0 .1v.36l-.25-.17-.06-.05c-.49-.27-1.16-.38-1.26 1a4.39 4.39 0 0 0 2.14 3.68c.49 2.69 1.36 6.22 2.71 7.45 1 .86 1.89 1.8 2.82 2.6.3 1.26.84 4.49-.9 6.13l.64.68c1.68-1.59 1.64-4.22 1.38-5.93a4.43 4.43 0 0 0 5.63 0c-.26 1.71-.3 4.34 1.38 5.93l.64-.68c-1.74-1.64-1.19-4.87-.9-6.13.93-.8 1.86-1.74 2.82-2.6 1.39-1.27 2.28-5 2.75-7.69a4.14 4.14 0 0 0 1.79-3.45z"/><path d="m36.8 18.42a4.81 4.81 0 0 0 -2.8-2.49c-9.72-2.64-20 4.81-20.94 6.53-.49.87.44 3.08 1.51 5 .28-.28.56-.56.86-.82 4.71-4.19 11-4.86 15.45-4.65a31.42 31.42 0 0 1 5.1.63l.07-.12a4.73 4.73 0 0 0 .75-4.08z"/><path d="m13.36 16.7a3.63 3.63 0 0 0 -.77 4.89c1.56-1.82 7.69-6.22 14.85-7-5.02-.5-11.55.19-14.08 2.11z"/><path d="m12.48 16.23a21.55 21.55 0 0 1 13.9-7.23 35.47 35.47 0 0 0 -8.45.8c-3.6.75-5.91 1.49-7.29 2.34h-.05l-.17.11a2.78 2.78 0 0 0 -1.42 1.92c-.16 1.1.5 2.59 2.06 4.62a4 4 0 0 1 1.42-2.56z"/><path d="m35 10.84a20.39 20.39 0 0 0 -19.73 3.89c4.81-1.63 13-1.63 16.94-.12a18.34 18.34 0 0 1 2.06.42 5.77 5.77 0 0 1 3.36 3.06 4.62 4.62 0 0 1 .24 1 5.28 5.28 0 0 0 1-4.47 6.61 6.61 0 0 0 -3.87-3.78z"/><path d="m40 8.82c-3-3.72-9.19-3.44-13.5-3.27a26.31 26.31 0 0 0 -8.37 1.73 23.37 23.37 0 0 0 -3.08 1.45 16 16 0 0 1 -2.16 1.41 41.9 41.9 0 0 1 4.84-1.25c9.81-2 14.63.19 15.15.45.79.16 1.6.36 2.43.61a7.79 7.79 0 0 1 4.25 3.76 3 3 0 0 0 1.44-2.51 4.13 4.13 0 0 0 -1-2.38z"/><path d="m32.55 4.86-.55-.23-.21-.08-.85-.3-.23-.07-.64-.18-.32-.09-.5-.14-.34-.09-.48-.11-.35-.07-.45-.09-.35-.06-.45-.07h-.33l-.5-.11h-.31-.49-.27-.59-1.05-.51-.27-.44-.28-.41-.28l-.4.05h-.28l-.42.13h-.27l-.39.08h-.25l-.41.1-.22.05-.46.24h-.1l-.61.18-.2.06-.38.14-.24.08-.33.13-.24.09-.31.13-.24.1-.3.13-.23.14-.29.13-.23.11-.3.14-.22.11-.28.15-.2.11-.3.19-.21.13a2.63 2.63 0 0 0 -.33.2c-.82.51-1.45 1-2 1.34a1.86 1.86 0 0 0 -.82 1.29 3.84 3.84 0 0 0 .64 2.3c1.2-1.3 8.3-8.05 22.27-6.34z"/><path d="m14.64 4.05.44-.19.18-.08.37-.15.21-.08.38-.14.21-.07.42-.14a.64.64 0 0 1 .15-.06l.64-.14h.06l.56-.15h.21l.43-.11.24-.05.42-.09h.25l.44-.08h.24l.56-.08h.12l.7-.06h.22.49 1.78.53.22l.77.07h.19l.59.07h.29l.52.08.31.06.51.1.31.07a5.66 5.66 0 0 1 .56.13l.27.06.84.23.81.26.28.1.59.2.32.13.57.22.33.14c.2.07.4.16.6.25l.29.14c.26.11.51.23.77.36l.14.06.86.45h.07c.25 0 .5.1.76.16h.11a17.52 17.52 0 0 0 -5.74-4.45 15.84 15.84 0 0 0 -16.61 3z"/><path d="m14.86 28.5h-.07l.06.05z"/></g><path d="m0 0h50v50h-50z" fill="none"/></svg>