<svg viewBox="0 0 50 50" xmlns="http://www.w3.org/2000/svg"><path d="m0 0h50v50h-50z" fill="none"/><g fill="#0a0a0a"><path d="m35.91 28.21a1.1 1.1 0 0 0 -.5-.11 10.87 10.87 0 0 0 .78-4.22v-.37l-.36-.09a31.89 31.89 0 0 0 -3.69-.57h-.42a24.38 24.38 0 0 0 -12 1.81.81.81 0 0 0 -.18.08 16 16 0 0 0 -4.79 3.46 1.14 1.14 0 0 0 -1 0c-.41.22-.63.7-.68 1.46a4.55 4.55 0 0 0 2.15 3.92c.5 2.7 1.38 6.16 2.79 7.43l1.22 1.14c.48.46 1 1 1.58 1.45l.27.22c.28 1.46.5 4.07-1 5.48l.63.67c1.51-1.43 1.61-3.69 1.42-5.37a5 5 0 0 0 2.68 1h.32a4.73 4.73 0 0 0 2.42-.78c-.16 1.65 0 3.81 1.44 5.19l.63-.67c-1.42-1.34-1.3-3.75-1.05-5.24l.6-.47c.55-.48 1.12-1 1.63-1.5s.77-.73 1.16-1.08c1.44-1.3 2.33-4.89 2.83-7.68a4.38 4.38 0 0 0 1.84-3.67c-.08-.79-.3-1.27-.72-1.49zm-21.12 1.1.69.53.07-1.16a15.19 15.19 0 0 1 4.45-3.14l.12-.05a23.63 23.63 0 0 1 11.6-1.75h.44a29.16 29.16 0 0 1 3.15.46 8.53 8.53 0 0 1 -.91 3.8l-.08.14v.16a3.73 3.73 0 0 1 0 .46v.78l.67-.4c.22-.13.36-.15.4-.13s.17.2.2.72a3.5 3.5 0 0 1 -1.63 3l-.13.11v.17c-.67 3.83-1.59 6.43-2.57 7.32-.4.36-.79.73-1.19 1.11s-1.06 1-1.57 1.45l-1.08.85a4.23 4.23 0 0 1 -2.54.91 4.07 4.07 0 0 1 -2.48-.9l-1.08-.85c-.51-.43-1-.91-1.54-1.41l-1.2-1.13c-1-.87-1.87-3.39-2.54-7.08v-.18l-.15-.1c-1.37-1-2-2.07-1.92-3.23 0-.49.15-.68.21-.71a.78.78 0 0 1 .31.1h.05z"/><path d="m33.94 15.72a16.18 16.18 0 0 0 -4.27-.55c-8.33 0-15.73 5.69-16.49 7-.61 1.07.84 3.85 1.49 5l.06.11.08-.09c.29-.3.56-.56.84-.81 4.28-3.8 9.87-4.6 13.8-4.6h1.39a31.24 31.24 0 0 1 5 .63h.12v-.01l.06-.1a4.78 4.78 0 0 0 .7-4.07 4.93 4.93 0 0 0 -2.78-2.51zm-3.06 5.2h-1.43c-4.09 0-9.92.84-14.41 4.83l-.08.07c-.94-1.86-1.1-2.9-1-3.13.64-1.11 7.75-6.57 15.69-6.57a15.39 15.39 0 0 1 4 .51 4 4 0 0 1 2.19 2 3.57 3.57 0 0 1 -.41 2.88 34.17 34.17 0 0 0 -4.55-.59z"/><path d="m27.42 14.56.89-.1-.89-.09c-1-.09-2.06-.14-3.15-.14-3.78 0-8.61.6-10.81 2.27a3.69 3.69 0 0 0 -.79 4.94l.07.12.09-.1c1.32-1.55 7.24-6.07 14.59-6.9zm-6.6.76a28 28 0 0 0 -7.76 4.6 2.4 2.4 0 0 1 1-2.68c1.16-.92 3.67-1.62 6.76-1.92z"/><path d="m26.37 9.07v-.19a34.8 34.8 0 0 0 -8.36.8c-3.51.73-5.79 1.45-7.15 2.28l-.12.1-.17.11a2.85 2.85 0 0 0 -1.39 1.92c-.16 1.11.49 2.58 2 4.62l.13.18v-.22a3.94 3.94 0 0 1 1.36-2.48 21 21 0 0 1 13.7-7.12zm-16.3 5.13a2 2 0 0 1 1-1.28l.12-.08c1.26-.78 3.46-1.48 6.92-2.2h.2a21.53 21.53 0 0 0 -6.34 5 5 5 0 0 0 -1 1.29 4.4 4.4 0 0 1 -.9-2.73z"/><path d="m34.94 10.7a22.56 22.56 0 0 0 -6.53-1 20.06 20.06 0 0 0 -13 4.86l-.37.32.46-.16a29.16 29.16 0 0 1 8.82-1.21 23.53 23.53 0 0 1 7.86 1.11 14.56 14.56 0 0 1 2 .41 5.61 5.61 0 0 1 3.25 3 4.06 4.06 0 0 1 .24 1v.26l.14-.21a5.3 5.3 0 0 0 1-4.5 6.67 6.67 0 0 0 -3.87-3.88zm2.94 6.14a6.85 6.85 0 0 0 -3.48-2.72 17.59 17.59 0 0 0 -2-.41 24.75 24.75 0 0 0 -8.09-1.14 36.25 36.25 0 0 0 -4.85.32 18.59 18.59 0 0 1 9-2.27 21.39 21.39 0 0 1 6.26 1 5.65 5.65 0 0 1 3.28 3.17 3.52 3.52 0 0 1 -.12 2.05z"/><path d="m39.85 8.73c-2.41-3-6.7-3.34-10.18-3.34-1.07 0-2.12.05-3.05.08h-.15a26.25 26.25 0 0 0 -8.29 1.71 23.69 23.69 0 0 0 -3 1.44 8.49 8.49 0 0 0 -.83.58 5.36 5.36 0 0 1 -1.35.8l.05.17a43.84 43.84 0 0 1 4.8-1.17 37.18 37.18 0 0 1 7.55-.84c4.57 0 6.91 1.06 7.34 1.27.84.17 1.62.37 2.39.6a7.66 7.66 0 0 1 4.14 3.66v.11l.1-.07a3.06 3.06 0 0 0 1.44-2.56 4.19 4.19 0 0 0 -.96-2.44zm.1 2.44a1.73 1.73 0 0 1 -.38 1.12 8.79 8.79 0 0 0 -4.15-3.18c-.77-.23-1.55-.43-2.36-.59a18.41 18.41 0 0 0 -7.66-1.33 36.17 36.17 0 0 0 -5.95.53 25.53 25.53 0 0 1 7.06-1.32h.13c.92 0 2-.08 3-.08 3.27 0 7.3.34 9.46 3a3.29 3.29 0 0 1 .9 1.85z"/><path d="m10.42 11.31.09-.09c1-1.08 6.68-6.51 17.61-6.51a35.62 35.62 0 0 1 4.32.29l.69.08-.65-.26-.58-.23-.15-.06h-.05l-.83-.29h-.12-.12-.08l-.55-.3h-.16-.15l-.51-.14-1.18-.36-.4-.08h-.19-.15-.16-.29-.16-.17l-.48-.23h-.31-.44l-.25-.13h-.39-.35c-.28 0-.56 0-.83 0h-.1-.53l-1 .07h-.4-.14-.15l-.66.09-.39.07h-.21-.06l-.38.07-.25.06-.41.09h-.19-.07a3.17 3.17 0 0 0 -.44.12h-.05l-.64.43h-.19l-.17.1-.22.08-.15.05h-.08l-.33.12-.25.1-.4.16-.14.06-.25.11-.2.09-.29.13-.22.11-.19.09-.31.16-.27.15h-.07l-.13.07-.34.2-.28.22-.33.2h-.05c-.82.51-1.44 1-1.94 1.32a2 2 0 0 0 -.84 1.34 3.93 3.93 0 0 0 .64 2.33zm.22-2.31a1 1 0 0 1 .47-.72c.45-.28 1.07-.77 1.89-1.28h.1l.3-.19.2-.11.34-.19.1-.06h.08l.25-.13.32-.16.12-.16.19-.1.26-.13h.08.11l.23-.11.32-.17.39-.16.18-.07h.06l.29-.11h.12.06.06l.11-.15.18-.06.19-.07.57-.17h.1l.41-.11.28-.11.39-.09h.25l.36-.13h.22.35l.9-.13h.4.25l1.15-.05h1.52a25.16 25.16 0 0 0 -14.12 5.8 1.8 1.8 0 0 1 -.03-.88z"/><path d="m14.77 4.19.48-.19.11-.05h.07l.36-.15.57-.21h.1.11l.43-.26.17-.06.62-.18.55-.15h.1.11l.42-.1h.24l.4-.08h.12.14l.43-.07h.11.12l.55-.07h.07.14l.6-.06h.36.34.3 1.44.53.24l.73.06h.18l.59.07.47.07.32.06h.31l.81.17.54.12h.16.19l.74.2.78.24.18.06h.1l.44.16.18.06.28.11.55.21.32.14.59.25.2.09h.1l.84.37h.08l.85.44h.08l.65.13.47.12-.18-.22a17.2 17.2 0 0 0 -5.69-4.42 17.31 17.31 0 0 0 -5.96-1.05 15.85 15.85 0 0 0 -10.42 4.08l-.58.48.66-.34zm6.38-2.72a15.08 15.08 0 0 1 9.59.53 8.81 8.81 0 0 1 1.87 1h-.1l-.34-.13h-.16a4.29 4.29 0 0 0 -.42-.15h-.08l-.21-.12-.82-.26h-.05l-.86-.23h-.14l-.13-.11-.57-.14-1.14-.22-.35-.06-.49-.07-.59-.07h-.2l-.73-.06h-.23-.79-.13c-.27 0-.55 0-.79 0h-.73-.36-.16-.24l-.64.06z"/></g></svg>