<svg viewBox="0 0 50 50" xmlns="http://www.w3.org/2000/svg"><path d="m0 0h50v50h-50z" fill="none"/><path d="m36.48 36.84c-.25-3.21-1.5-19.33-2-21.91a5 5 0 0 0 -3.81-4.11h-.11-.43c-.08-.82-.16-1.63-.2-2.11a.59.59 0 0 0 -.48-.51l-.64-.1-.09-.74c1.28-.14 2.17-.36 2.17-.53s-.52-.31-1.37-.43a10.23 10.23 0 0 1 -2-.45 5.05 5.05 0 0 0 -1.13-.23c.41-1.27 1.24-4.62-.68-5.57a1.55 1.55 0 0 0 -1.33 0c-1.94 1-1.06 4.37-.67 5.61a4.9 4.9 0 0 0 -.77.18 10 10 0 0 1 -2 .45c-.87.12-1.41.27-1.41.44s.69.35 1.78.47l-.09.79-.57.09a.6.6 0 0 0 -.47.51c0 .48-.12 1.29-.2 2.11h-.56-.11a5 5 0 0 0 -3.81 4.11c-.49 2.58-1.74 18.7-2 21.91a2.61 2.61 0 0 0 .06.79 6 6 0 0 0 4.1 4.39 1.86 1.86 0 0 0 -.1.25v2.22a1.37 1.37 0 0 1 -.56 1.08c-.47.37-1.08 1-1.07 1.49a1.07 1.07 0 0 1 -.14.52.57.57 0 0 0 .14.75c.54.52 4.58 1.81 9.25 1.68 0 0 7.58-.11 8.87-1.68.28-.34.25-.59.12-.78a.94.94 0 0 1 -.12-.49c0-.53-.6-1.12-1.07-1.49a1.37 1.37 0 0 1 -.52-1.08v-2.22a1.53 1.53 0 0 0 -.11-.27 6 6 0 0 0 4-4.35 2.61 2.61 0 0 0 .13-.79zm-11.77-36.11a1 1 0 0 1 .74 0c1.39.69.77 3.56.3 4.94h-.51c-.29 0-.57 0-.83 0-.41-1.36-1.1-4.24.3-4.94zm-2.71 6.63c.92.08 2 .12 3.25.12 1 0 2 0 2.86-.09l.07.6a26.64 26.64 0 0 0 -3-.2h-.18a27.44 27.44 0 0 0 -3.1.21zm10.1 8c.37 1.92 1.31 13.33 1.87 20.53l-.88.11a1 1 0 0 0 -.85 1 .83.83 0 0 1 -.67.75l-3.74.09c0-.09-.06-.15-.08-.2 1.64-.19 2.74-.55 2.74-1s-.66-.61-1.71-.81a7.59 7.59 0 0 0 .88-.31 5 5 0 0 0 2.27-1.68 5 5 0 0 0 .89-2.67 10.32 10.32 0 0 0 -.19-2.52c.65-.59.58-.78.52-1-.13-.34-.55-.29-.76-.25a57 57 0 0 0 -2.81-8.36l-.33-.86h.36c-.42-.35-.17-3.11-.17-3.11h1.48a.2.2 0 0 0 .17-.3 4.63 4.63 0 0 1 -.6-1.37c0-.05 0-.12 0-.2a2.62 2.62 0 0 1 1.58 2.2zm-14 13.14c0-.22.09-.45.14-.68a46.28 46.28 0 0 0 4.55 4l1.91 1.51-3.26 2-.71-.25a4.7 4.7 0 0 1 -2.06-1.52 4.64 4.64 0 0 1 -.8-2.41 11.75 11.75 0 0 1 .18-2.61zm3.5-10.27h7.1l.08.11.37.93a51.9 51.9 0 0 1 2.93 9 77.28 77.28 0 0 1 -6.84 4.73 59.92 59.92 0 0 1 -6.87-5.89 53.66 53.66 0 0 1 2.45-7c.23-.58.47-1.17.69-1.74zm10.7 12.95a4.55 4.55 0 0 1 -.79 2.41 4.7 4.7 0 0 1 -2.06 1.52 9.38 9.38 0 0 1 -1 .33c-.9-.67-1.8-1.36-2.68-2 .54-.34 1.11-.7 1.67-1.07 2.49-1.61 3.91-2.61 4.71-3.26a9.74 9.74 0 0 1 .15 2.07zm-10 4.41c.63-.38 1.7-1 2.93-1.82 1 .79 1.89 1.45 2.44 1.86h-.23a24.45 24.45 0 0 0 -2.54-.13c-.81 0-1.59 0-2.28.1zm-4.37-20.19a2.56 2.56 0 0 1 1.76-2.14v.23a4.9 4.9 0 0 1 -.6 1.37.2.2 0 0 0 .17.3h1.49s.24 2.76-.18 3.11h.43q-.32.81-.66 1.65a62.81 62.81 0 0 0 -2.27 6.29.54.54 0 0 0 -.59.28c-.07.16-.15.34.29.91-.08.35-.16.7-.22 1.06a11.5 11.5 0 0 0 -.24 2.75 4.68 4.68 0 0 0 3.16 4.35 6.49 6.49 0 0 0 .74.26c-1.19.21-1.95.52-1.95.86s1.16.79 2.87 1v.14c-.87 0-1.68 0-2.18.05-.28 0-.44-.24-.68-.69s-.46-.88-1-.89l-2.27-.16c.6-7.19 1.55-18.79 1.93-20.73zm-1.93 21.7a.15.15 0 0 1 0-.1v-.24l2.28.14c.11 0 .27.31.39.53.25.47.59 1.11 1.32 1 .45 0 1.19-.06 2-.06-.32 1.23-.72 1.34-.72 1.34l-.55.2-1.9-.21a3.54 3.54 0 0 1 -2.82-2.6zm18 0a3.57 3.57 0 0 1 -2.9 2.7l-1.3.31h-.2c-.48-.2-.83-.32-.83-.32a.62.62 0 0 1 -.46-.46 6.63 6.63 0 0 0 -.27-.83l3.5-.09a1.46 1.46 0 0 0 1.33-1.41.31.31 0 0 1 .27-.31l.85-.1.01.41a.15.15 0 0 1 0 .1z"/></svg>