<svg viewBox="0 0 50 50" xmlns="http://www.w3.org/2000/svg"><g fill="none"><path d="m0 0h50v50h-50z"/><path d="m1 24.67v18.43a4 4 0 0 0 3.43 3.9l6.43.25h.14a3.91 3.91 0 0 0 .49 0 4 4 0 0 0 3.91-3.41l2.3-18.56a4 4 0 0 0 -3.87-4.52l-8.83-.04v-1 1a4 4 0 0 0 -4 3.95z"/><path d="m45.49 20.71h-13.49l.8-1.47 8-14.82a1.33 1.33 0 0 0 -.23-1.14 1.48 1.48 0 0 0 -1.17-.6 1.39 1.39 0 0 0 -.88.34l-14.38 12.98a6.32 6.32 0 0 0 -2 3.81l-3.39 23.12a3.85 3.85 0 0 0 3.8 4.39h16.45c3.2-.4 6-5.43 7.79-13.81.3-1.43.67-2.81 1-4.14.87-3.29 1.69-6.4.69-7.71-.43-.66-1.48-.95-2.99-.95z"/></g><path d="m13.79 19.82-8.79-.1v1l8.78.1a4 4 0 0 1 3.87 4.52l-2.3 18.56a4 4 0 0 1 -3.91 3.41 3.91 3.91 0 0 1 -.49 0h-.09l-6.43-.31a4 4 0 0 1 -3.43-3.9v-18.43a4 4 0 0 1 4-4v-1a5 5 0 0 0 -4.95 5v18.43a5 5 0 0 0 4.3 4.9l6.47.25a4.3 4.3 0 0 0 .62 0 5 5 0 0 0 4.9-4.25l2.3-18.57a5 5 0 0 0 -4.85-5.61z"/><path d="m45.49 19.71h-11.81l8-14.91a2.42 2.42 0 0 0 -2.33-3.12 2.34 2.34 0 0 0 -1.51.56l-14.41 13a7.36 7.36 0 0 0 -2.36 4.41l-3.31 23.14a4.84 4.84 0 0 0 4.79 5.53h16.55c5-.55 7.59-9.26 8.71-14.6 1.55-7.4 5.02-14.01-2.32-14.01zm2.36 9.66c-.35 1.33-.72 2.71-1 4.14-1.77 8.38-4.61 13.41-7.85 13.81h-16.45a3.85 3.85 0 0 1 -3.8-4.39l3.35-23.15a6.32 6.32 0 0 1 2-3.81l14.41-12.97a1.39 1.39 0 0 1 .88-.34 1.48 1.48 0 0 1 1.17.6 1.33 1.33 0 0 1 .23 1.14l-8 14.82-.79 1.49h13.49c1.54 0 2.56.32 3 .95 1.05 1.34.23 4.42-.64 7.71z"/></svg>