<svg xmlns="http://www.w3.org/2000/svg" width="20.034" height="20" viewBox="0 0 20.034 20">
  <path id="listalt" d="M17.544,20H2.519a2.416,2.416,0,0,1-1.771-.732A2.4,2.4,0,0,1,.015,17.5V2.5A2.408,2.408,0,0,1,.749.732,2.412,2.412,0,0,1,2.519,0H17.544a2.416,2.416,0,0,1,1.771.732A2.4,2.4,0,0,1,20.049,2.5v15a2.5,2.5,0,0,1-2.5,2.5ZM18.8,5a1.268,1.268,0,0,0-1.252-1.25H2.519a1.2,1.2,0,0,0-.88.371A1.2,1.2,0,0,0,1.268,5V17.5a1.191,1.191,0,0,0,.372.889,1.22,1.22,0,0,0,.88.361H17.544a1.22,1.22,0,0,0,.88-.361A1.191,1.191,0,0,0,18.8,17.5V5ZM16.918,17.5H6.9a.625.625,0,0,1,0-1.25H16.918a.625.625,0,0,1,0,1.25Zm0-5H6.9a.625.625,0,0,1,0-1.25H16.918a.625.625,0,0,1,0,1.25Zm0-5H6.9a.625.625,0,0,1,0-1.25H16.918a.625.625,0,0,1,0,1.25ZM4.4,17.5H3.145a.635.635,0,0,1-.626-.625v-1.25a.6.6,0,0,1,.186-.439A.6.6,0,0,1,3.145,15H4.4a.635.635,0,0,1,.626.625v1.25a.6.6,0,0,1-.186.439A.6.6,0,0,1,4.4,17.5Zm0-5H3.145a.635.635,0,0,1-.626-.625v-1.25a.6.6,0,0,1,.186-.439A.6.6,0,0,1,3.145,10H4.4a.635.635,0,0,1,.626.625v1.25a.6.6,0,0,1-.186.439A.6.6,0,0,1,4.4,12.5Zm0-5H3.145a.635.635,0,0,1-.626-.625V5.625A.6.6,0,0,1,2.7,5.185.6.6,0,0,1,3.145,5H4.4a.635.635,0,0,1,.626.625v1.25a.6.6,0,0,1-.186.439A.6.6,0,0,1,4.4,7.5Z" transform="translate(-0.015)" fill="#707070"/>
</svg>
