<svg viewBox="0 0 50 44.16" xmlns="http://www.w3.org/2000/svg"><path d="m46.82 21h-7.44a1.08 1.08 0 0 0 -.92.53 1.06 1.06 0 0 0 0 1.06l3.72 6.44a1.06 1.06 0 0 0 1.84 0l3.71-6.44a1 1 0 0 0 0-1.06 1 1 0 0 0 -.91-.53z" fill="none"/><path d="m49.57 20.52a3.15 3.15 0 0 0 -2.75-1.59h-2.88a22.08 22.08 0 1 0 -21.86 25.23v-2.16a20 20 0 1 1 19.71-23.07h-2.41a3.18 3.18 0 0 0 -2.75 4.76l3.72 6.44a3.13 3.13 0 0 0 2.75 1.59 3.13 3.13 0 0 0 2.75-1.59l3.72-6.44a3.15 3.15 0 0 0 0-3.17zm-1.84 2.11-3.73 6.44a1.06 1.06 0 0 1 -1.84 0l-3.72-6.44a1.06 1.06 0 0 1 0-1.06 1.08 1.08 0 0 1 .92-.53h7.44a1 1 0 0 1 .91.53 1 1 0 0 1 .02 1.06z" fill="#212121"/></svg>