<svg viewBox="0 0 50 50" xmlns="http://www.w3.org/2000/svg"><g fill="none"><path d="m0 0h50v50h-50z"/><path d="m36.92 6.8a4.71 4.71 0 0 0 -4.7-4.7h-14.44a4.71 4.71 0 0 0 -4.7 4.7v7.44h23.84z"/><rect height="31.55" rx="2.38" width="36.2" x="6.9" y="16.35"/></g><path d="m40.72 14.24h-1.72v-7.44a6.81 6.81 0 0 0 -6.78-6.8h-14.44a6.81 6.81 0 0 0 -6.78 6.8v7.44h-1.72a4.49 4.49 0 0 0 -4.48 4.49v26.78a4.49 4.49 0 0 0 4.48 4.49h31.44a4.49 4.49 0 0 0 4.48-4.49v-26.78a4.49 4.49 0 0 0 -4.48-4.49zm-27.64-7.44a4.71 4.71 0 0 1 4.7-4.7h14.44a4.71 4.71 0 0 1 4.7 4.7v7.44h-23.84zm30 38.71a2.39 2.39 0 0 1 -2.38 2.39h-31.42a2.39 2.39 0 0 1 -2.38-2.39v-26.78a2.39 2.39 0 0 1 2.38-2.38h31.44a2.39 2.39 0 0 1 2.38 2.38z" fill="#212121"/></svg>