<svg viewBox="0 0 50 50" xmlns="http://www.w3.org/2000/svg"><g fill="#0a0a0a"><path d="m39 20c0-.9.07-1.79.05-2.69-.69-.51-1.39-1.05-2.12-1.62-2.67-2.1-5.4-4.26-8.6-5.19a3.62 3.62 0 0 1 -2.83 2.12 2.8 2.8 0 0 1 .57 1.26 2.17 2.17 0 0 1 -.41 1l1.24 1.24-1.9 1.88-1.87-1.87 1.23-1.24a2.25 2.25 0 0 1 -.4-1 2.79 2.79 0 0 1 .56-1.25 3.63 3.63 0 0 1 -2.9-2.13c-3.18.93-5.91 3.08-8.56 5.17-.73.58-1.44 1.12-2.14 1.64 0 .9 0 1.81.12 2.72a1.35 1.35 0 0 0 -2.04.96c-.51 2.37 1 5.7 2.56 6.56a43.61 43.61 0 0 0 2.64 12.88 10.31 10.31 0 0 0 3.4 4.06 7.35 7.35 0 0 1 -3.6 4.34l.61 1.16a8.59 8.59 0 0 0 4.09-4.68c1.06.77 2.17 1.47 3.3 2.13a6 6 0 0 0 3 .8 7.54 7.54 0 0 0 3.23-.84c1-.57 2.1-1.16 3.1-1.83.5-.34 1-.71 1.46-1.1a8.72 8.72 0 0 0 4.32 5.52l.62-1.16a7.47 7.47 0 0 1 -3.87-5.41 9.07 9.07 0 0 0 2-3c.71-1.82 1.77-7.79 2.46-12.78 1.6-.73 3.23-4.19 2.7-6.63a1.32 1.32 0 0 0 -2.02-1.02zm-19.08 11h-3.55a.78.78 0 1 1 0-1.56h3.55a.78.78 0 1 1 0 1.56z"/><path d="m21.36 8.53a3.67 3.67 0 0 1 7.28 0c3.69 1 6.75 3.41 9.52 5.6l.65.51a9 9 0 0 0 -1.16-3.1 14.43 14.43 0 0 0 -1.89-2.38 7.74 7.74 0 0 0 1.18-2.51l-.68-.14.74-.35a5.5 5.5 0 0 0 0-2.24l-.87-.18.73-.33a6.83 6.83 0 0 0 -1.56-2.52 5.6 5.6 0 0 0 -.85 1 7.53 7.53 0 0 0 -1.3-1.89 5.94 5.94 0 0 0 -1.58 6.1 15.48 15.48 0 0 0 -5.71-1.65 12.06 12.06 0 0 0 -1.7 0 7.09 7.09 0 0 0 -.91.12 17 17 0 0 0 -10.37 6.22 9.4 9.4 0 0 0 -1.67 3.84l.67-.52c2.76-2.17 5.8-4.57 9.48-5.58z"/><path d="m25 6.18a2.8 2.8 0 0 0 -2.71 2.13 2.46 2.46 0 0 0 -.09.69 2.8 2.8 0 0 0 5.6 0 2.46 2.46 0 0 0 -.09-.67 2.8 2.8 0 0 0 -2.71-2.15zm2.31 2.82a2.31 2.31 0 0 1 -4.62 0 2.19 2.19 0 0 1 .14-.77 2.3 2.3 0 0 1 4.34 0 2.19 2.19 0 0 1 .14.77z"/></g><path d="m0 0h50v50h-50z" fill="none"/></svg>