<svg viewBox="0 0 50 50" xmlns="http://www.w3.org/2000/svg"><path d="m0 0h50v50h-50z" fill="none"/><path d="m47.81 18.47-9.88-4.67v-10a3.77 3.77 0 0 0 -3.77-3.8h-19.16a3.77 3.77 0 0 0 -3.77 3.77v19.63c-4.88 3.52-9.07 2.78-9.07 2.78a90.76 90.76 0 0 0 9.07 2.08v18a3.77 3.77 0 0 0 3.77 3.74h19.16a3.77 3.77 0 0 0 3.77-3.77v-20c7.27-3.15 9.88-7.76 9.88-7.76zm-13.41-14.34v8l-3-1.43c-2.08 4.3-8.95 12.56-10.49 12.3s-4.86-4.45-4.86-4.45c-.42.56-.84 1.08-1.26 1.57v-16zm-17 40.81v-2.4h2.39v2.4zm5.2 1.06v-4.1h4.14v4.1zm6.9-1.09v-2.4h2.39v2.4zm4.9-6.12h-19.61v-10c8.33 1 14.74.27 19.61-1.21z" fill="#0a0a0a"/></svg>