<svg viewBox="0 0 50 50" xmlns="http://www.w3.org/2000/svg"><path d="m0 0h50v50h-50z" fill="none"/><path d="m39.71 6.9c-.35-.34-.7-.66-1.06-1l.11-.5a.62.62 0 0 0 -.46-.73h-.15l.24-1.14a.6.6 0 0 0 -.39-.72.58.58 0 0 0 -.72.42l-.28 1.19h-.17a.41.41 0 0 0 -.22 0 21.06 21.06 0 0 0 -5-2.44.84.84 0 0 0 -.25-.74.87.87 0 0 0 -1.23 0l-.26.25a20.58 20.58 0 0 0 -2.08-.38.93.93 0 0 0 -.25-.55.88.88 0 0 0 -1.24 0l-.38.39-.92-.06h-1a.88.88 0 0 0 -1.75 0v.2a20.39 20.39 0 0 0 -2.07.38l-.26-.25a.87.87 0 0 0 -1.48.74 20.64 20.64 0 0 0 -5 2.44l-.44.06-.28-1.23a.58.58 0 0 0 -.72-.42.6.6 0 0 0 -.41.72l.25 1.19a.61.61 0 0 0 -.43.71l.08.35c-.42.36-.83.73-1.23 1.12a1.24 1.24 0 1 0 1.29 1.27c.27-.27.56-.54.85-.79l4.85 23a10.48 10.48 0 0 0 3.5 16.66l.49 2.32a.81.81 0 1 0 1.58-.36l-.29-1.3a10.66 10.66 0 0 0 4.94 0l-.29 1.3a.81.81 0 0 0 1.56.42l.49-2.32a10.48 10.48 0 0 0 3.5-16.66l4.85-23c.29.25.58.51.85.78a1.24 1.24 0 1 0 1.28-1.32zm-26.78-.73a.3.3 0 1 1 0-.59.3.3 0 1 1 0 .59zm16.82-2.25-2.31 23.38h-.07l1.42-23.6a.86.86 0 0 0 .96.22zm-3.54 35.24v-1h.07zm-.49 0v-1h.06zm-.49 0h-.05v-1h.08zm-.5 0v-1h.05zm-.48 0-.07-1h.06zm-.48 0h-.07l-.09-1h.09zm4.62-36.16-1.46 24.2-.36-.06.81-24.3zm-1.85-.24h.39l-.81 24.29h-.29l.29-23.9.12-.1zm-1.54.29a.89.89 0 0 0 .66.25l-.28 23.7h-.38l-.3-24.32h.07a.88.88 0 0 0 .23.37zm-1-.33h.31l.26 24.28h-.37l-1-23.48a.88.88 0 0 0 .8-.8zm-1.73.16a.88.88 0 0 0 .55.63l1 23.58-.39.05-1.81-24.14zm-1.06.85v-.07l1.69 23.56-.36.08-2.26-23.37a.87.87 0 0 0 .89-.2zm-2.73 25.56-4.88-22.17.4-.07a.62.62 0 0 0 .47-.73l-.09-.41a18.82 18.82 0 0 1 5.32-2.47l.14.14 2.32 23.84a10.28 10.28 0 0 0 -3.68 1.87zm3.34 9.87a.49.49 0 0 1 0-1h1.33l.1 1zm3.18 5.63c-1.07 0-1.93-.4-1.93-1.47a1.3 1.3 0 0 1 .48-1.07l.07.77.45-.05h.34v.23h.45v-.2h.33v.12h.4.45.38v-.86a1.27 1.27 0 0 1 .46 1c.05 1.13-.81 1.53-1.88 1.53zm3.18-5.63h-1.46l.09-1h1.37a.49.49 0 0 1 0 1zm3.34-9.87a10.41 10.41 0 0 0 -3.64-1.87l2.36-23.87.1-.11a19.14 19.14 0 0 1 5.5 2.56l-.06.28a.61.61 0 0 0 .46.73h.17zm5.75-23.12a.3.3 0 1 1 0-.59.3.3 0 1 1 0 .59z" fill="#0a0a0a"/></svg>