<svg viewBox="0 0 50 50" xmlns="http://www.w3.org/2000/svg"><path d="m0 0h50v50h-50z" fill="none"/><g fill="#212121"><path d="m39.66 6.82c-.27-.27-.55-.52-.82-.76l.06-.3a.94.94 0 0 0 -.12-.71 1.07 1.07 0 0 0 -.41-.35l.17-.8a.92.92 0 0 0 -.65-1.11.91.91 0 0 0 -1.12.66l-.19.86a20.77 20.77 0 0 0 -4.73-2.31 1.22 1.22 0 0 0 -.35-.73 1.15 1.15 0 0 0 -.84-.35 1.19 1.19 0 0 0 -.85.35l-.12.12c-.55-.12-1.11-.23-1.67-.31a1.19 1.19 0 0 0 -1.13-.82 1.23 1.23 0 0 0 -.89.35l-.28.28c-.55 0-1 0-1.49 0a1.2 1.2 0 0 0 -2.35.21q-.81.12-1.62.3l-.11-.12a1.19 1.19 0 0 0 -.85-.35 1.15 1.15 0 0 0 -.84.35 1.2 1.2 0 0 0 -.35.73 20.5 20.5 0 0 0 -4.72 2.32l-.2-.9a.91.91 0 0 0 -1.77.46l.19.92a.93.93 0 0 0 -.36 1v.15c-.33.29-.66.59-1 .91a1.55 1.55 0 0 0 .2 3.09 1.56 1.56 0 0 0 1.54-1.37l.31-.29 4.63 22a10.68 10.68 0 0 0 3.61 16.7l.46 2.16a1.11 1.11 0 0 0 1.09.84 1 1 0 0 0 .29 0 1.11 1.11 0 0 0 .69-.53 1.08 1.08 0 0 0 .11-.84l-.18-.82a10.76 10.76 0 0 0 4 0l-.17.76a1.13 1.13 0 0 0 .8 1.39 1.13 1.13 0 0 0 .86-.11 1.15 1.15 0 0 0 .52-.71l.45-2.14a10.68 10.68 0 0 0 3.54-16.75l4.63-22c.11.09.21.19.31.29a1.57 1.57 0 0 0 1.54 1.36 1.55 1.55 0 0 0 .19-3.09zm-.19 2.42a.88.88 0 0 1 -.88-.85v-.14l-.09-.09c-.27-.26-.55-.52-.86-.79l-.44-.37-4.93 23.45.11.12a10 10 0 0 1 -3.38 15.91l-.16.07-.47 2.45a.48.48 0 0 1 -.57.33.44.44 0 0 1 -.28-.22.47.47 0 0 1 0-.37l.4-1.81-.52.13a10.17 10.17 0 0 1 -4.72 0l-.52-.13.41 1.83a.48.48 0 0 1 -.05.35.44.44 0 0 1 -.28.22.48.48 0 0 1 -.35 0 .43.43 0 0 1 -.21-.27l-.52-2.45-.16-.13a10 10 0 0 1 -3.34-15.91l.11-.12-4.97-23.45-.43.37c-.29.26-.58.52-.86.79l-.09.1v.13a.89.89 0 0 1 -1.77 0 .9.9 0 0 1 .85-.89h.13l.09-.09c.39-.38.79-.75 1.2-1.09l.15-.13-.12-.54a.26.26 0 0 1 .19-.31l.29-.09-.31-1.49a.24.24 0 0 1 .17-.3.24.24 0 0 1 .3.16l.34 1.54.74-.16h.05a20.52 20.52 0 0 1 4.87-2.37l.27-.08v-.28a.53.53 0 0 1 .14-.52.54.54 0 0 1 .75 0l.38.38h.18a19.23 19.23 0 0 1 2-.37h.29v-.56a.53.53 0 0 1 .53-.53.52.52 0 0 1 .53.53v.38h.34 1 .88.12l.48-.48a.53.53 0 0 1 .9.33v.27h.27a19.41 19.41 0 0 1 2 .37h.18l.38-.38a.54.54 0 0 1 .75 0 .53.53 0 0 1 .15.45v.28l.26.09a19.7 19.7 0 0 1 4.86 2.36l.11.07h.13a.14.14 0 0 1 .09 0l.5.11.32-1.49a.26.26 0 0 1 .31-.17.25.25 0 0 1 .17.32l-.28 1.49.47.1a.23.23 0 0 1 .17.12.24.24 0 0 1 0 .2l-.15.69.15.13 1 .94.09.09h.13a.91.91 0 0 1 .86.89.88.88 0 0 1 -.83.88z"/><path d="m37.11 5.5a.63.63 0 0 0 -.63.63.63.63 0 1 0 1.25 0 .63.63 0 0 0 -.62-.63z"/><circle cx="13.09" cy="6.13" r=".63"/><path d="m36 6.84a.28.28 0 0 1 0-.2l.11-.5-.23-.14a19.1 19.1 0 0 0 -5.51-2.61h-.15l-.42.41a.53.53 0 0 1 -.72 0 .53.53 0 0 1 -.15-.42v-.31l-.13-.07h-.21-.23c-.33-.06-.67-.11-1-.15h-.44-.36-.16l-.29.15-.11.11a.52.52 0 0 1 -.33.14.51.51 0 0 1 -.42-.14.54.54 0 0 1 -.13-.22l-.12-.24h-1-.31v.35a.53.53 0 0 1 -.4.5h-.13a.53.53 0 0 1 -.32-.12.46.46 0 0 1 -.19-.3l-.07-.31-.31.05-.58.09h-.23-.2-.1v.3a.54.54 0 0 1 -.15.43.53.53 0 0 1 -.75 0l-.17-.17-.25-.25-.19.06a18.91 18.91 0 0 0 -5.31 2.47l-.24.25.13.62a.24.24 0 0 1 0 .2.3.3 0 0 1 -.23.18l-.67.15 5 22.71.42-.33a9.91 9.91 0 0 1 3.32-1.75l1 10h-1.21a.81.81 0 0 0 0 1.62h1.43l.24 2.34a1.59 1.59 0 0 0 -.77 1.43c0 1.11.84 1.78 2.24 1.78s2.24-.67 2.24-1.78a1.58 1.58 0 0 0 -.77-1.43l.07-1.13.12-1.21h1.48a.81.81 0 0 0 0-1.62h-1.32l1-10a9.76 9.76 0 0 1 3.41 1.77l.42.33 5-22.75-.49-.13a.3.3 0 0 1 -.16-.16zm-9.89-3a1.41 1.41 0 0 0 .36-.24l.19-.19h.24l-.77 23.29h-.3zm.07 34.82v-.29h.05v.29zm0 .67-.06.93v-.93zm-.36-12h.29l-.34 10.31h-.07zm-.13 11h.05v.29zm0 1-.05 1.48v.57-.56zm-.9-35.73a1.18 1.18 0 0 0 .88.34l-.27 22.74h-.4l-.27-23.15zm.43 37.73v-.08-1.92h.05v1.92zm0-2.67v-.29h.07v.29zm0-1-.22-10.34h.34l-.12 10.37zm-.42 2.05v-.43zm0-1.39v.29zm0-.66h-.06l-.42-10.34h.35zm-.4 2.5-.06-.88zm-.5-.88.1 2.15-.22-2.12zm-.14-.67v-.29h.1v.29zm-.27-11.2.38-.05.43 10.3h-.07zm.84 10.91v.29h-.13v-.29zm0-35 .3 23.33h-.38l-.94-22.5a1.21 1.21 0 0 0 .95-.82zm-2.47.26h.26a1.19 1.19 0 0 0 .77.6l.94 22.57-.41.06-1.71-22.95a.84.84 0 0 0 .08-.27zm-3 25.06-4.63-21a.92.92 0 0 0 .59-.41 1 1 0 0 0 .13-.7v-.18a18.11 18.11 0 0 1 4.68-2.25l.05.05 2.32 22.92a10.53 10.53 0 0 0 -3.22 1.58zm1.3-24.14a1.17 1.17 0 0 0 1.14-.13l1.61 22.48-.44.1zm1.7 34.14a.14.14 0 0 1 -.14-.14.15.15 0 0 1 .14-.15h1.34v.29zm.68-11 .42-.1.73 10.17h-.12zm3.95 15a.28.28 0 0 1 0 .12 1.66 1.66 0 0 1 0 .33c0 .74-.53 1.11-1.57 1.11s-1.57-.37-1.57-1.11a1.66 1.66 0 0 1 0-.33.28.28 0 0 1 0-.12 1.74 1.74 0 0 1 .11-.18v.07a1.14 1.14 0 0 0 -.11.11v.12c0 .3.69.55 1.53.55s1.53-.25 1.53-.55v-.12a.46.46 0 0 0 -.07-.07v-.05a.75.75 0 0 1 .15.11zm1.65-4.28a.15.15 0 0 1 .14.15.14.14 0 0 1 -.14.14h-1.41v-.29zm-1.87-.66h-.07l.34-10.25h.34zm.29-10.93.77-23.3.88.13a1.58 1.58 0 0 0 .09.31l-1.38 22.91zm.68 2.23.08-1.39h.05zm.2-2.05h-.08l1.36-22.56a1.19 1.19 0 0 0 .93.17zm3.78 1.72a10.53 10.53 0 0 0 -3.34-1.67l2.24-22.67a.48.48 0 0 0 .11-.09l.14-.13a18.09 18.09 0 0 1 4.95 2.33v.06a.93.93 0 0 0 .55 1.06z"/></g></svg>