<svg viewBox="0 0 50 50" xmlns="http://www.w3.org/2000/svg"><g fill="none"><path d="m0 0h50v50h-50z"/><path d="m0 0h50v50h-50z"/><path d="m3.69 48.1a4.43 4.43 0 0 1 -2.35-3.94v-38.32a4.43 4.43 0 0 1 2.35-3.94 4.6 4.6 0 0 1 2.19-.56 4.56 4.56 0 0 1 2.44.71l30.32 19.16a4.51 4.51 0 0 1 2 2.67 4.64 4.64 0 0 1 .09 1.12 4.47 4.47 0 0 1 -2.09 3.79l-30.32 19.21a4.52 4.52 0 0 1 -4.63.1z"/></g><path d="m3.05.73a5.81 5.81 0 0 1 6 .2l30.3 19.16a5.8 5.8 0 0 1 0 9.83l-30.35 19.16a5.85 5.85 0 0 1 -6 .19 5.75 5.75 0 0 1 -3-5.11v-38.32a5.75 5.75 0 0 1 3.05-5.11zm35.59 28.06a4.47 4.47 0 0 0 2.09-3.79 4.64 4.64 0 0 0 -.14-1.12 4.51 4.51 0 0 0 -2-2.67l-30.27-19.16a4.56 4.56 0 0 0 -2.44-.71 4.6 4.6 0 0 0 -2.19.56 4.43 4.43 0 0 0 -2.35 3.94v38.32a4.43 4.43 0 0 0 2.35 3.94 4.52 4.52 0 0 0 4.63-.1z"/><path d="m48.66.19h1.34v49.62h-1.34z"/></svg>