<svg viewBox="0 0 50.04 50" xmlns="http://www.w3.org/2000/svg"><g fill="none"><path d="m.04 0h50v50h-50z"/><path d="m49.13 41.68c-1-.18-2.91-.67-3.93-1h-.06a14.08 14.08 0 0 1 -7.67-4.64 23.13 23.13 0 0 1 -2.59-4.15c-.4-.81-.8-1.67-1.15-2.42a34.06 34.06 0 0 0 -3-5.52c-1.89-2.68-4.4-4.31-6.87-4.48h-.5a16.5 16.5 0 0 0 -2.38.23c-.42.06-.83.12-1.24.16a11.41 11.41 0 0 1 -5.92-.72 10.75 10.75 0 0 1 -4.72-4.5 18.52 18.52 0 0 1 -1.35-2.79c-.2-.52-.4-1.08-.58-1.67a7.39 7.39 0 0 1 -5.71 1.82c.15.36.33.79.52 1.22a39.15 39.15 0 0 0 2.02 3.78 16.37 16.37 0 0 0 5.58 5.9h.07a17 17 0 0 0 8 2h.89c1.79 0 3.63-.15 5.4-.29l2.28-.18h.56a2.69 2.69 0 0 1 1.5.38 3.11 3.11 0 0 1 1 1.3c.42.8.84 1.65 1.21 2.4 1.68 3.44 3.43 7 6.6 9.26 3.64 2.58 8.12 3.56 12 4.19a.11.11 0 0 0 .12-.11.11.11 0 0 0 -.08-.17z"/><path d="m4.89 8.08a4.78 4.78 0 0 0 -3.56 2.05 5.73 5.73 0 0 0 5-1.71 3.4 3.4 0 0 0 -1.44-.34z"/></g><path d="m49.22 41.16c-.51-.09-1.6-.33-3.85-.93h-.09a13.59 13.59 0 0 1 -7.4-4.46 21.61 21.61 0 0 1 -2.52-4.06c-.4-.79-.78-1.61-1.15-2.4a34.46 34.46 0 0 0 -3-5.61c-2-2.8-4.64-4.52-7.27-4.7a15.16 15.16 0 0 0 -3 .22l-1.21.16a11 11 0 0 1 -5.65-.68 10.25 10.25 0 0 1 -4.5-4.3 17 17 0 0 1 -1.32-2.71c-.26-.54-.41-1.09-.58-1.69a4.22 4.22 0 0 1 -.11-.51c0-.13-.05-.27-.08-.4a7.08 7.08 0 0 1 -5.25 2.37 7.68 7.68 0 0 1 -1.63-.16l.07.14c.28.7.54 1.33.82 2a40.42 40.42 0 0 0 2 3.83 17 17 0 0 0 5.76 6.08h.06a17.38 17.38 0 0 0 8.27 2.05 58.94 58.94 0 0 0 6.41-.29l2.24-.17h.52a2.27 2.27 0 0 1 1.22.29 2.81 2.81 0 0 1 .84 1.1c.42.79.82 1.6 1.2 2.39 1.72 3.5 3.49 7.12 6.77 9.46 3.71 2.62 8.26 3.63 12.21 4.26h.11a.65.65 0 0 0 .1-1.28zm-.1 1h-.06c-3.93-.62-8.44-1.62-12.12-4.23-3.23-2.29-5-5.88-6.69-9.35-.36-.75-.78-1.6-1.2-2.4a2.94 2.94 0 0 0 -.94-1.2 2.43 2.43 0 0 0 -1.37-.34h-.54l-2.2.19c-1.81.15-3.65.3-5.45.3h-.9a17.16 17.16 0 0 1 -8.12-2h-.07a16.62 16.62 0 0 1 -5.67-6 37.66 37.66 0 0 1 -2-3.8c-.24-.51-.45-1-.61-1.41l-.08-.2h.21a7.17 7.17 0 0 0 5.84-1.9l.16-.14.05.21a1.08 1.08 0 0 0 0 .21c.18.59.37 1.15.57 1.66a18.14 18.14 0 0 0 1.34 2.76 10.5 10.5 0 0 0 4.73 4.4 11.24 11.24 0 0 0 5.79.71l1.21-.16a16.24 16.24 0 0 1 2.44-.24h.52c2.54.18 5.11 1.85 7.05 4.59a34 34 0 0 1 3 5.54c.36.77.75 1.62 1.16 2.43a22 22 0 0 0 2.55 4.1 13.83 13.83 0 0 0 7.55 4.56c1 .27 2.89.76 3.92.94a.36.36 0 0 1 .29.37.35.35 0 0 1 -.36.4z" fill="#0a0a0a"/><path d="m49.27 40.91c-.51-.09-1.59-.32-3.84-.92h-.09a13.34 13.34 0 0 1 -7.27-4.38 21.93 21.93 0 0 1 -2.49-4c-.4-.79-.78-1.61-1.14-2.4a35 35 0 0 0 -3-5.64c-2-2.87-4.74-4.62-7.45-4.81a15.55 15.55 0 0 0 -3.05.22c-.4.06-.8.12-1.2.16a10.84 10.84 0 0 1 -5.53-.66 10 10 0 0 1 -4.39-4.19 18 18 0 0 1 -1.3-2.68c-.19-.51-.38-1.05-.56-1.62 0-.1-.06-.29-.1-.49s-.13-.5-.18-.68v-.23l-.16.18a6.89 6.89 0 0 1 -5.23 2.46 7.77 7.77 0 0 1 -1.88-.23l-.25-.06.11.23.12.25.06.12c.28.7.54 1.34.83 2a36.53 36.53 0 0 0 2 3.85 17.13 17.13 0 0 0 5.85 6.17h.07a17.62 17.62 0 0 0 8.37 2.08 59.27 59.27 0 0 0 6.43-.28l2.24-.17h.5a1.94 1.94 0 0 1 1.08.25 2.55 2.55 0 0 1 .77 1c.4.79.8 1.6 1.19 2.39 1.73 3.53 3.52 7.18 6.85 9.55 3.77 2.62 8.37 3.67 12.37 4.3h.14a.9.9 0 0 0 .15-1.78zm-.15 1.53h-.12c-4-.63-8.51-1.64-12.24-4.28-3.28-2.34-5.05-6-6.77-9.46-.38-.79-.78-1.6-1.2-2.39a2.81 2.81 0 0 0 -.84-1.1 2.27 2.27 0 0 0 -1.22-.29h-.52l-2.21.19a58.94 58.94 0 0 1 -6.39.28 17.38 17.38 0 0 1 -8.27-2.05h-.06a17 17 0 0 1 -5.78-6.11 40.42 40.42 0 0 1 -2-3.83c-.28-.62-.54-1.25-.82-2l-.07-.14a7.68 7.68 0 0 0 1.63.18 7.08 7.08 0 0 0 5.25-2.33c0 .13 0 .27.08.4a4.22 4.22 0 0 0 .11.51c.17.58.36 1.13.56 1.64a17 17 0 0 0 1.32 2.71 10.25 10.25 0 0 0 4.5 4.3 11 11 0 0 0 5.65.68l1.21-.16a15.16 15.16 0 0 1 3-.22c2.63.18 5.28 1.9 7.27 4.7a34.46 34.46 0 0 1 3 5.61c.37.79.75 1.61 1.15 2.4a21.61 21.61 0 0 0 2.52 4.06 13.59 13.59 0 0 0 7.4 4.46h.09c2.25.6 3.34.84 3.85.93a.65.65 0 0 1 -.1 1.28z"/><path d="m49.18 41.43c-1-.18-2.9-.67-3.92-.94a13.83 13.83 0 0 1 -7.55-4.56 22 22 0 0 1 -2.55-4.1c-.41-.81-.8-1.66-1.16-2.43a34 34 0 0 0 -3-5.54c-1.94-2.74-4.51-4.41-7-4.59h-.52a16.24 16.24 0 0 0 -2.44.24l-1.21.16a11.24 11.24 0 0 1 -5.83-.75 10.5 10.5 0 0 1 -4.63-4.4 18.14 18.14 0 0 1 -1.37-2.76c-.2-.51-.39-1.07-.57-1.66a1.08 1.08 0 0 1 0-.21l-.05-.21-.16.14a7.17 7.17 0 0 1 -5.94 1.88h-.21l.08.2c.16.39.37.9.61 1.41a37.66 37.66 0 0 0 2 3.8 16.62 16.62 0 0 0 5.67 6h.07a17.16 17.16 0 0 0 8.12 2h.9c1.8 0 3.64-.15 5.45-.3l2.25-.17h.54a2.43 2.43 0 0 1 1.37.34 2.94 2.94 0 0 1 .94 1.2c.42.8.84 1.65 1.2 2.4 1.7 3.47 3.46 7.06 6.69 9.35 3.68 2.61 8.19 3.61 12.12 4.23h.06a.35.35 0 0 0 .35-.36.36.36 0 0 0 -.31-.37zm-.08.49c-3.9-.63-8.38-1.61-12-4.19-3.17-2.26-4.92-5.82-6.6-9.26-.37-.75-.79-1.6-1.21-2.4a3.11 3.11 0 0 0 -1-1.3 2.69 2.69 0 0 0 -1.5-.38h-.56l-2.28.18c-1.77.14-3.61.29-5.4.29h-.89a17 17 0 0 1 -8-2h-.07a16.37 16.37 0 0 1 -5.59-5.86 39.15 39.15 0 0 1 -2-3.77c-.19-.43-.37-.86-.52-1.22a7.39 7.39 0 0 0 5.7-1.81c.18.59.38 1.15.58 1.67a18.52 18.52 0 0 0 1.34 2.77 10.75 10.75 0 0 0 4.75 4.51 11.41 11.41 0 0 0 5.92.72c.41 0 .82-.1 1.24-.16a16.5 16.5 0 0 1 2.38-.23h.5c2.47.17 5 1.8 6.87 4.48a34.06 34.06 0 0 1 3 5.52c.35.75.75 1.61 1.15 2.42a23.13 23.13 0 0 0 2.59 4.15 14.08 14.08 0 0 0 7.67 4.64h.06c1 .28 2.9.77 3.93 1a.11.11 0 0 1 .09.13.11.11 0 0 1 -.15.1z"/><path d="m7.17 8.31a3.89 3.89 0 0 0 -2.28-.75c-1.59 0-3.1 1-4.49 2.92a7.19 7.19 0 0 0 1.82.25 6.47 6.47 0 0 0 4.95-2.42zm-6.3 2 .13-.16q1.85-2.31 3.89-2.31a3.66 3.66 0 0 1 1.71.44l.15.08-.12.11a6 6 0 0 1 -4.41 2 6.29 6.29 0 0 1 -1.14-.11z" fill="#0a0a0a"/><path d="m2.22 11a6.73 6.73 0 0 0 5.22-2.63l.07-.07-.07-.08v-.06a4.23 4.23 0 0 0 -2.51-.85c-1.76 0-3.37 1.06-4.83 3.17l-.1.14.16.05a7.41 7.41 0 0 0 2.06.33zm2.67-3.44a3.89 3.89 0 0 1 2.28.75 6.47 6.47 0 0 1 -4.95 2.42 7.19 7.19 0 0 1 -1.82-.25c1.39-1.94 2.9-2.92 4.49-2.92z"/><path d="m6.63 8.47.12-.11-.15-.08a3.66 3.66 0 0 0 -1.71-.44q-2 0-3.89 2.31l-.13.16h.21a6.29 6.29 0 0 0 1.14.11 6 6 0 0 0 4.41-1.95zm-5.3 1.66a4.78 4.78 0 0 1 3.56-2.05 3.4 3.4 0 0 1 1.45.34 5.73 5.73 0 0 1 -5.01 1.71z"/></svg>