<svg viewBox="0 0 50 40.88" xmlns="http://www.w3.org/2000/svg"><path d="m43.73 0h-37.46a6.27 6.27 0 0 0 -6.27 6.27v28.34a6.27 6.27 0 0 0 6.27 6.27h37.46a6.27 6.27 0 0 0 6.27-6.27v-28.34a6.27 6.27 0 0 0 -6.27-6.27zm-17.73 28.9h.09zm21.93-11c-7.43-.69-12 4-17 7.87h-.08c-3.57 2.61-7.67 4.78-13.18 4.23-8.25-.83-12.86.73-15.28 2.19l-.64-1.07c2.57-1.56 7.45-3.23 16-2.37 4.35.44 7.73-.88 11.13-3.16a10.24 10.24 0 0 1 -6.17-4.44c-4.99-7.06-12.57-9.47-20.63-6.15v-8.73a4.2 4.2 0 0 1 4.19-4.19l4.41-.08 7.45.06h25.6a4.2 4.2 0 0 1 4.19 4.19z"/></svg>