<svg viewBox="0 0 50 50" xmlns="http://www.w3.org/2000/svg"><path d="m0 0h50v50h-50z" fill="none"/><path d="m49.48.52a1.78 1.78 0 0 0 -2.48 0l-.21.21a3 3 0 0 0 -2.51.83l-3.5 3.44a4.73 4.73 0 0 0 -3.87 1.36l-30.52 30.55a4.73 4.73 0 0 0 -1.39 3.87l-3.44 3.47a3 3 0 0 0 -.83 2.51l-.21.24a1.78 1.78 0 0 0 0 2.51 1.76 1.76 0 0 0 1.26.49 1.74 1.74 0 0 0 1.22-.52l.21-.21a3 3 0 0 0 .42 0 3 3 0 0 0 2.09-.87l3.5-3.4a4.41 4.41 0 0 0 .52 0 4.72 4.72 0 0 0 3.35-1.39l30.52-30.52a4.73 4.73 0 0 0 1.39-3.87l3.47-3.47a3 3 0 0 0 .83-2.51l.18-.24a1.78 1.78 0 0 0 0-2.48z" fill="#0a0a0a"/></svg>