<svg viewBox="0 0 50 50" xmlns="http://www.w3.org/2000/svg"><g fill="none"><path d="m0 0h50v50h-50z"/><path d="m6.09 29.62a1.21 1.21 0 0 0 1-.77 1.23 1.23 0 0 0 -.2-1.21l-2.14-2.56a1.18 1.18 0 0 0 -.94-.45 1.22 1.22 0 0 0 -1.15.8l-1.17 3.08a1.23 1.23 0 0 0 .14 1.13 1.21 1.21 0 0 0 1.1.51.41.41 0 0 0 .11 0l2-.44v.11z"/><path d="m46.19 25.37a1.21 1.21 0 0 0 1.15-.8l1.17-3.08a1.23 1.23 0 0 0 -.14-1.13 1.21 1.21 0 0 0 -1.21-.51l-2 .44v-.11l-1.24.2a1.21 1.21 0 0 0 -.95.77 1.23 1.23 0 0 0 .2 1.21l2.09 2.56a1.18 1.18 0 0 0 .93.45z"/></g><path d="m49.53 19.56a2.62 2.62 0 0 0 -2.59-1.1l-.77.12a22.2 22.2 0 0 0 -21.17-15.71 22 22 0 0 0 -12.39 3.78l-.41.27.8 1.17.41-.27a20.55 20.55 0 0 1 11.59-3.54 20.81 20.81 0 0 1 19.77 14.53l-1.09.19a2.63 2.63 0 0 0 -1.61 4.26l2.09 2.56a2.64 2.64 0 0 0 4.5-.74l1.17-3.08a2.6 2.6 0 0 0 -.3-2.44zm-6.53 1.59a1.21 1.21 0 0 1 .95-.77l1.24-.2v.11l2-.44a1.21 1.21 0 0 1 1.21.51 1.23 1.23 0 0 1 .14 1.13l-1.17 3.08a1.21 1.21 0 0 1 -1.15.8 1.18 1.18 0 0 1 -.94-.45l-2.09-2.56a1.23 1.23 0 0 1 -.19-1.21z"/><path d="m36.6 42.18a20.55 20.55 0 0 1 -11.6 3.54 20.81 20.81 0 0 1 -19.77-14.53l1.09-.19a2.63 2.63 0 0 0 1.61-4.26l-2.08-2.55a2.65 2.65 0 0 0 -2-1 2.61 2.61 0 0 0 -2.47 1.7l-1.2 3.11a2.57 2.57 0 0 0 .29 2.43 2.62 2.62 0 0 0 2.59 1.1l.77-.12a22.2 22.2 0 0 0 21.17 15.72 22 22 0 0 0 12.37-3.78l.41-.27-.78-1.17zm-33.76-12a.41.41 0 0 1 -.11 0 1.21 1.21 0 0 1 -1.1-.51 1.23 1.23 0 0 1 -.14-1.13l1.17-3.08a1.22 1.22 0 0 1 1.15-.8 1.18 1.18 0 0 1 .94.45l2.09 2.56a1.23 1.23 0 0 1 .16 1.18 1.21 1.21 0 0 1 -1 .77l-1.23.2v-.11z"/></svg>