<svg viewBox="0 0 50 50" xmlns="http://www.w3.org/2000/svg"><path d="m0 0h50v50h-50z" fill="none"/><path d="m47.82 20.16-1.21-.05a22.19 22.19 0 0 0 -34-13.51l2.86 4.23a17.08 17.08 0 0 1 25.83 9h-.15a2.27 2.27 0 0 0 -2.15 3.36l3.09 5.95a2.27 2.27 0 0 0 3.93.17l3.61-5.66a2.27 2.27 0 0 0 -1.81-3.49z"/><path d="m25 42.08a17.1 17.1 0 0 1 -16.27-11.95h.15a2.27 2.27 0 0 0 2.12-3.32l-3.1-5.95a2.27 2.27 0 0 0 -3.9-.17l-3.64 5.66a2.27 2.27 0 0 0 1.82 3.49l1.21.05a22.19 22.19 0 0 0 34 13.51l-2.86-4.23a17 17 0 0 1 -9.53 2.91z"/></svg>