<svg viewBox="0 0 50 50" xmlns="http://www.w3.org/2000/svg"><path d="m0 0h50v50h-50z" fill="none"/><g fill="#0a0a0a"><path d="m35.93 26.56a1.34 1.34 0 0 0 -.72-.16 20.33 20.33 0 0 0 0-2.47c0-.15 0-.28 0-.42l.07-.08-.07-.06a7.36 7.36 0 0 0 -1.06-3.08 10.84 10.84 0 0 0 -1.32-1.71 5 5 0 0 0 .62-1.44.19.19 0 0 0 0-.18.27.27 0 0 0 .1-.16 4.2 4.2 0 0 0 0-1.62.23.23 0 0 0 -.13-.16.2.2 0 0 0 0-.2 4.89 4.89 0 0 0 -1.23-1.82.25.25 0 0 0 -.35 0 2.36 2.36 0 0 0 -.32.33 5.61 5.61 0 0 0 -1.14-1.8.25.25 0 0 0 -.35 0 5 5 0 0 0 -1.48 4.1 12.14 12.14 0 0 0 -3.91-1 12.71 12.71 0 0 0 -1.38 0c-.25 0-.49.06-.74.1a13.49 13.49 0 0 0 -8.26 5 7.77 7.77 0 0 0 -1.47 3.72 15.15 15.15 0 0 0 -.06 3 1.41 1.41 0 0 0 -.74.15 1.58 1.58 0 0 0 -.78 1.15 6.15 6.15 0 0 0 2 5.42 33.8 33.8 0 0 0 2 9.74 8.67 8.67 0 0 0 2.89 3.42 5.56 5.56 0 0 1 -2.58 2.83l.48.84a6.58 6.58 0 0 0 2.93-3.1c.74.53 1.56 1.05 2.48 1.58a5 5 0 0 0 2.5.68h.09a6.54 6.54 0 0 0 2.63-.71c.74-.41 1.61-.89 2.42-1.44.36-.24.69-.49 1-.74a6.66 6.66 0 0 0 3.18 3.73l.48-.89a5.61 5.61 0 0 1 -2.83-3.56 7.81 7.81 0 0 0 1.83-2.69 66.92 66.92 0 0 0 1.87-9.65 6 6 0 0 0 2.1-5.51 1.57 1.57 0 0 0 -.75-1.14zm-23.73 1.35a.67.67 0 0 1 .26-.47.56.56 0 0 1 .35 0v.67c.07.79.15 1.61.17 2.39 0 .36 0 .73.06 1.09a5.24 5.24 0 0 1 -.84-3.68zm19.46-11.91a.27.27 0 0 0 .13-.18 4.65 4.65 0 0 0 -.06-1.82l.29-.36a4.3 4.3 0 0 1 .73 1.19l-.28.13a.26.26 0 0 0 -.15.26.26.26 0 0 0 .2.22l.43.08a3.3 3.3 0 0 1 0 1.13l-.4.18a.26.26 0 0 0 .06.48h.19a5.45 5.45 0 0 1 -.42.93 12.06 12.06 0 0 0 -.94-.84 1.58 1.58 0 0 0 -.15-.12 5.56 5.56 0 0 0 .4-1.07.21.21 0 0 0 -.03-.21zm-.36-.42-.28.13a3.43 3.43 0 0 1 .29-1.07 3.7 3.7 0 0 1 -.01.91zm-.14 1.58-.28-.2a2.87 2.87 0 0 0 .15-.37 4.59 4.59 0 0 0 .13.54zm-1-5.07a5.08 5.08 0 0 1 .88 1.43l-.35.15a.26.26 0 0 0 -.15.26.24.24 0 0 0 .2.22h.2a4 4 0 0 0 -.41 2.54 13.05 13.05 0 0 0 -1.34-.79l-.11-.05a4.26 4.26 0 0 1 1.1-3.79zm-15.11 8.2a12.45 12.45 0 0 1 7.62-4.58 5 5 0 0 1 .66-.08 5.35 5.35 0 0 1 .61 0 5.44 5.44 0 0 1 .61 0 11.28 11.28 0 0 1 4.19 1.21 12.69 12.69 0 0 1 1.81 1.13l.23.18a10.85 10.85 0 0 1 1.12 1 10.19 10.19 0 0 1 1.29 1.65 6.24 6.24 0 0 1 .69 1.6 21.14 21.14 0 0 0 -6.88-4.11l-.21-.07a2.81 2.81 0 0 0 -5.58 0h-.1-.1a21 21 0 0 0 -7.01 4.19 6.41 6.41 0 0 1 1.07-2.15zm10.65-1.69v.19a1.68 1.68 0 0 1 -.26.73 1.75 1.75 0 0 1 -1.5.85 1.78 1.78 0 0 1 -1.51-.85 1.81 1.81 0 0 1 -.25-.73 1.21 1.21 0 0 1 0-.19 1.67 1.67 0 0 1 .11-.59 1.76 1.76 0 0 1 3.32 0 1.67 1.67 0 0 1 .11.56zm8.47 8.31v1c-.07 2.6-1.56 12.54-2.38 14.65a8.17 8.17 0 0 1 -3.28 3.7c-.78.52-1.62 1-2.34 1.38a5.45 5.45 0 0 1 -2.21.59 4.09 4.09 0 0 1 -2-.55 29.53 29.53 0 0 1 -2.7-1.75l-.26-.22a8.15 8.15 0 0 1 -2.87-3.22 32.82 32.82 0 0 1 -2-9.69c-.06-.78-.1-1.57-.12-2.35s-.1-1.64-.17-2.45l-.09-1a21.84 21.84 0 0 1 -.08-2.43c.38-.28.75-.58 1.13-.88a20.72 20.72 0 0 1 6.45-3.93h.12a2.78 2.78 0 0 0 2.21 1.63 2 2 0 0 0 -.43.95 1.73 1.73 0 0 0 .31.77l-.94 1 1.48 1.35 1.41-1.46-.95-1a1.62 1.62 0 0 0 .31-.77 2 2 0 0 0 -.44-1 2.78 2.78 0 0 0 2.17-1.62 20.29 20.29 0 0 1 6.57 4l1.13.87c.04.84.02 1.63-.01 2.4zm.61 4.69c.21-1.59.34-2.93.36-3.7v-.47a.55.55 0 0 1 .27 0 .75.75 0 0 1 .25.47 5.18 5.18 0 0 1 -.86 3.67z"/><path d="m24 17.3a1.26 1.26 0 0 0 -1.07.6 1.28 1.28 0 0 0 -.2.67v.15a1.25 1.25 0 0 0 .31.69 1.25 1.25 0 0 0 1.89 0 1.29 1.29 0 0 0 .32-.7v-.14a1.28 1.28 0 0 0 -.25-.67 1.26 1.26 0 0 0 -1-.6z"/><path d="m38.87 9.55-.97-9.23a.36.36 0 0 0 -.72 0l-1 9.23a1.31 1.31 0 0 0 .91 1.37v38.63h.91v-38.63a1.3 1.3 0 0 0 .87-1.37zm-1.21.45-.12.16-.12-.16a.28.28 0 0 1 -.2-.31l.32-3.1.33 3.1a.3.3 0 0 1 -.21.31z"/><path d="m20.85 32.81h-2.91a.64.64 0 1 0 0 1.27h2.91a.64.64 0 1 0 0-1.27z"/></g></svg>