<svg viewBox="0 0 50 50" xmlns="http://www.w3.org/2000/svg"><g fill="#0a0a0a"><path d="m35.14 24.86c0-.75 0-1.51 0-2.25-.58-.44-1.17-.89-1.78-1.37-2.23-1.76-4.53-3.56-7.2-4.35a3.09 3.09 0 0 1 -2.38 1.79 2.28 2.28 0 0 1 .48 1.05 1.9 1.9 0 0 1 -.34.84l1 1-1.56 1.57-1.5-1.54 1-1a1.9 1.9 0 0 1 -.34-.84 2.3 2.3 0 0 1 .48-1.08 3.08 3.08 0 0 1 -2.44-1.78c-2.66.78-4.94 2.58-7.17 4.33-.61.48-1.2.94-1.79 1.38 0 .75 0 1.51.1 2.27a1.13 1.13 0 0 0 -1.72.85c-.43 2 .84 4.77 2.14 5.5a36.61 36.61 0 0 0 2.23 10.77 8.57 8.57 0 0 0 2.85 3.4 6.16 6.16 0 0 1 -3 3.64l.52 1a7.21 7.21 0 0 0 3.43-3.92c.89.64 1.81 1.23 2.76 1.79a5.21 5.21 0 0 0 2.48.67 6.29 6.29 0 0 0 2.71-.71c.88-.48 1.76-1 2.6-1.54a13.43 13.43 0 0 0 1.22-.92 7.29 7.29 0 0 0 3.63 4.59l.52-1a6.27 6.27 0 0 1 -3.25-4.53 7.79 7.79 0 0 0 1.64-2.47 73.89 73.89 0 0 0 2.06-10.71c1.35-.61 2.71-3.51 2.26-5.55a1.1 1.1 0 0 0 -1.64-.88zm-16 9.24h-3a.66.66 0 0 1 -.66-.65.67.67 0 0 1 .66-.66h3a.66.66 0 0 1 .66.66.65.65 0 0 1 -.66.65z"/><path d="m20.35 15.25a3.07 3.07 0 0 1 6.1 0c3.09.85 5.65 2.86 8 4.69l.55.43a7.37 7.37 0 0 0 -1-2.59 11.68 11.68 0 0 0 -1.58-2 6.33 6.33 0 0 0 1-2.1l-.57-.11.66-.3a4.8 4.8 0 0 0 -.05-1.88l-.74-.15.62-.27a5.87 5.87 0 0 0 -1.34-2.12 4.89 4.89 0 0 0 -.72.86 6.35 6.35 0 0 0 -1.08-1.6 5 5 0 0 0 -1.33 5.11 13 13 0 0 0 -4.78-1.39 11.21 11.21 0 0 0 -1.42 0c-.26 0-.52.06-.77.1a14.17 14.17 0 0 0 -8.68 5.22 7.81 7.81 0 0 0 -1.41 3.22l.56-.44c2.35-1.82 4.9-3.83 7.98-4.68z"/><path d="m23.4 13.28a2.37 2.37 0 0 0 -2.28 1.79 2.6 2.6 0 0 0 -.07.56 2.3 2.3 0 0 0 .27 1.08 2.33 2.33 0 0 0 4.15 0 2.31 2.31 0 0 0 .28-1.08 2.1 2.1 0 0 0 -.08-.56 2.35 2.35 0 0 0 -2.27-1.79zm1.93 2.35a1.88 1.88 0 0 1 -.28 1 1.92 1.92 0 0 1 -3.3 0 1.89 1.89 0 0 1 -.29-1 2 2 0 0 1 .12-.65 1.94 1.94 0 0 1 1.82-1.28 1.92 1.92 0 0 1 1.81 1.3 1.78 1.78 0 0 1 .12.63z"/><path d="m40.07 9.54-1.17-9.22c0-.43-.81-.43-.86 0l-1.17 9.22a1.32 1.32 0 0 0 1.13 1.37v38.6h1v-38.6a1.32 1.32 0 0 0 1.07-1.37z"/></g><path d="m0 0h50v50h-50z" fill="none"/></svg>