<svg viewBox="0 0 50 50" xmlns="http://www.w3.org/2000/svg"><path d="m0 0h50v50h-50z" fill="none"/><path d="m3.87 48.07a3.09 3.09 0 0 0 3.07.1l39.06-20.39a3.14 3.14 0 0 0 0-5.56l-39.06-20.39a3.13 3.13 0 0 0 -4.58 2.78v16l23.37 4.39-23.37 4.82v15.57a3.09 3.09 0 0 0 1.51 2.68z" fill="none"/><path d="m46.64 20.92-39.02-20.39a4.6 4.6 0 0 0 -6.73 4.08v17.21l17.26 3.18-17.26 3.63v16.76a4.59 4.59 0 0 0 6.73 4.08l39-20.39a4.6 4.6 0 0 0 0-8.16zm-44.28 8.9 23.37-4.82-23.37-4.4v-16a3.13 3.13 0 0 1 4.58-2.77l39.06 20.39a3.14 3.14 0 0 1 0 5.56l-39 20.39a3.13 3.13 0 0 1 -4.58-2.78z"/></svg>