<svg viewBox="0 0 51 51" xmlns="http://www.w3.org/2000/svg"><g fill="none"><path d="m.5.5h50v50h-50z"/><path d="m.5.5h50v50h-50z"/><path d="m27.15 19.51c-.23-.06-.46-.13-.7-.17h-.31c-.21 0-.43 0-.64 0a6.23 6.23 0 0 0 0 12.46h.64.31a6.27 6.27 0 0 0 5.28-6.16 6.12 6.12 0 0 0 -.27-1.72 6.25 6.25 0 0 0 -4.31-4.41z"/><path d="m49.52 21.62h-5l-.14-.62a19.12 19.12 0 0 0 -2.38-5.7l-.31-.5 3.54-3.54-5.49-5.49-3.54 3.54-.5-.31a19.12 19.12 0 0 0 -5.7-2.38l-.58-.14v-5h-7.8v5l-.62.14a19.12 19.12 0 0 0 -5.7 2.38l-.5.31-3.54-3.54-5.49 5.49 3.54 3.54-.31.5a19.12 19.12 0 0 0 -2.38 5.7l-.14.58h-5v7.76h5l.14.58a19.12 19.12 0 0 0 2.38 5.78l.31.5-3.54 3.54 5.49 5.49 3.54-3.54.5.31a19.07 19.07 0 0 0 5.75 2.38l.57.14v5h7.76v-5l.58-.14a19.12 19.12 0 0 0 5.74-2.38l.5-.31 3.54 3.54 5.49-5.49-3.54-3.54.31-.5a19.07 19.07 0 0 0 2.38-5.7l.14-.57h5zm-24 11.59a7.71 7.71 0 1 1 7.71-7.71 7.72 7.72 0 0 1 -7.73 7.71z"/></g><path d="m51 30.86v-10.72h-5.32a20.82 20.82 0 0 0 -2.12-5.14l3.76-3.76-7.58-7.56-3.74 3.76a20.82 20.82 0 0 0 -5.12-2.12v-5.32h-10.74v5.32a20.82 20.82 0 0 0 -5.14 2.12l-3.74-3.76-7.58 7.58 3.76 3.74a20.82 20.82 0 0 0 -2.12 5.12h-5.32v10.74h5.32a20.82 20.82 0 0 0 2.12 5.14l-3.76 3.74 7.58 7.58 3.74-3.76a20.82 20.82 0 0 0 5.12 2.12v5.32h10.74v-5.32a20.82 20.82 0 0 0 5.14-2.12l3.76 3.76 7.58-7.58-3.78-3.74a20.82 20.82 0 0 0 2.12-5.12zm-6.48-1.48-.14.57a19.07 19.07 0 0 1 -2.38 5.75l-.31.5 3.54 3.54-5.49 5.49-3.54-3.54-.5.31a19.12 19.12 0 0 1 -5.7 2.38l-.58.14v5h-7.8v-5l-.57-.14a19.07 19.07 0 0 1 -5.75-2.38l-.5-.31-3.54 3.54-5.49-5.49 3.54-3.54-.31-.5a19.12 19.12 0 0 1 -2.38-5.7l-.14-.58h-5v-7.8h5l.14-.62a19.12 19.12 0 0 1 2.38-5.7l.31-.5-3.54-3.54 5.49-5.49 3.54 3.54.5-.31a19.12 19.12 0 0 1 5.7-2.38l.58-.14v-5h7.76v5l.58.14a19.12 19.12 0 0 1 5.78 2.38l.5.31 3.54-3.54 5.49 5.49-3.54 3.54.31.5a19.12 19.12 0 0 1 2.38 5.7l.14.58h5v7.76z"/><path d="m25.5 17.79a7.71 7.71 0 1 0 7.71 7.71 7.72 7.72 0 0 0 -7.71-7.71zm.95 13.87h-.31c-.21 0-.43 0-.64 0a6.23 6.23 0 0 1 0-12.46h.64.31c.24 0 .47.11.7.17a6.25 6.25 0 0 1 4.31 4.27 6.12 6.12 0 0 1 .27 1.72 6.27 6.27 0 0 1 -5.28 6.3z"/></svg>