<svg viewBox="0 0 50 50" xmlns="http://www.w3.org/2000/svg"><path d="m0 0h50v50h-50z" fill="none"/><circle cx="25" cy="25" fill="none" r="7.04"/><path d="m50 29.67v-9.34h-5.21a20.13 20.13 0 0 0 -2.5-6l3.71-3.71-6.62-6.62-3.69 3.71a20.13 20.13 0 0 0 -6-2.5v-5.21h-9.36v5.21a20.13 20.13 0 0 0 -6 2.5l-3.71-3.71-6.62 6.62 3.69 3.69a20.13 20.13 0 0 0 -2.5 6h-5.19v9.34h5.21a20.13 20.13 0 0 0 2.5 6l-3.71 3.73 6.6 6.6 3.69-3.69a20.13 20.13 0 0 0 6 2.5v5.21h9.34v-5.21a20.13 20.13 0 0 0 6-2.5l3.75 3.71 6.6-6.6-3.69-3.69a20.13 20.13 0 0 0 2.5-6zm-25 2.33a7 7 0 1 1 7-7 7 7 0 0 1 -7 7z"/></svg>