<svg viewBox="0 0 50 50" xmlns="http://www.w3.org/2000/svg"><path d="m0 0h50v50h-50z" fill="none"/><path d="m48.72 19.64-21.98-12.64a2.82 2.82 0 0 0 -4.23 2.44v5.06c-.9.26-1.81.58-2.71.94a26.52 26.52 0 0 0 -6.36 3.73 30.5 30.5 0 0 0 -4.81 4.77 38 38 0 0 0 -3.56 5.22 47.19 47.19 0 0 0 -2.65 5.43 55.31 55.31 0 0 0 -2 5.52c-.14.47-.27.93-.39 1.37a1.53 1.53 0 0 0 .8 1.79 1.58 1.58 0 0 0 .71.17 1.51 1.51 0 0 0 1.21-.61c.26-.35.55-.71.83-1.07 1.16-1.43 2.37-2.78 3.6-4a34.24 34.24 0 0 1 8-6.19 19.3 19.3 0 0 1 4.13-1.68 13.31 13.31 0 0 1 3.17-.45v4.89a2.82 2.82 0 0 0 4.23 2.45l22-12.69a2.56 2.56 0 0 0 0-4.43zm-.72 3.19-22 12.69a1.4 1.4 0 0 1 -2.09-1.21v-6.31h-.68a14.23 14.23 0 0 0 -4.28.49 20.7 20.7 0 0 0 -4.44 1.8 35.94 35.94 0 0 0 -8.35 6.44c-1.23 1.27-2.47 2.67-3.66 4.14-.3.37-.58.73-.85 1.08a.12.12 0 0 1 -.16 0 .09.09 0 0 1 -.05-.13c.11-.43.24-.88.38-1.34a55.22 55.22 0 0 1 1.92-5.38 45.25 45.25 0 0 1 2.57-5.27 37.56 37.56 0 0 1 3.42-5 29 29 0 0 1 4.59-4.55 25.61 25.61 0 0 1 6-3.53 26.36 26.36 0 0 1 3.07-1l.53-.14v-6.22a1.41 1.41 0 0 1 1.41-1.39 1.44 1.44 0 0 1 .7.19l21.97 12.68a1.13 1.13 0 0 1 .56 1 1.12 1.12 0 0 1 -.56.96z"/></svg>