<svg viewBox="0 0 50 50" xmlns="http://www.w3.org/2000/svg"><path d="m0 0h50v50h-50z" fill="none"/><path d="m49.05 20.11-22.62-13.06a2.18 2.18 0 0 0 -3.26 1.88v5.82a25.83 25.83 0 0 0 -3.25 1.09 27.15 27.15 0 0 0 -6.37 3.73 31.42 31.42 0 0 0 -4.84 4.8 39.37 39.37 0 0 0 -3.59 5.28 49.8 49.8 0 0 0 -2.69 5.5c-.77 1.85-1.43 3.73-2 5.61-.13.47-.27.93-.4 1.4a.86.86 0 0 0 1.51.74l.87-1.1a54.09 54.09 0 0 1 3.75-4.21 36.82 36.82 0 0 1 8.42-6.5 20.85 20.85 0 0 1 4.42-1.79 14.11 14.11 0 0 1 4.18-.48v5.76a2.17 2.17 0 0 0 3.26 1.88l22.61-13.06a1.9 1.9 0 0 0 0-3.29z"/></svg>