<svg viewBox="0 0 50 50" xmlns="http://www.w3.org/2000/svg"><path d="m0 0h50v50h-50z" fill="none"/><path d="m50 48.34-23.62-23.62 8.9-8.9a2.75 2.75 0 0 0 4.18-.35l9.6-13.43a1.13 1.13 0 0 0 -.89-1.76 1.19 1.19 0 0 0 -.67.22l-13.31 9.75a2.75 2.75 0 0 0 -.32 4.16l-8.87 8.93-8.9-8.9a2.75 2.75 0 0 0 -.32-4.16l-13.28-9.78a1.19 1.19 0 0 0 -.67-.22 1.13 1.13 0 0 0 -.92 1.79l9.6 13.43a2.75 2.75 0 0 0 4.18.35l8.9 8.9-23.59 23.59 1.38 1.38 23.62-23.62 23.62 23.62zm-15-35.93a.8.8 0 0 1 .33-.59l9.17-6.71-6.61 9.26a.8.8 0 0 1 -.66.33.79.79 0 0 1 -.56-.23l-1.42-1.47a.81.81 0 0 1 -.25-.59zm-22.25 2.29a.8.8 0 0 1 -.66-.33l-6.61-9.26 9.17 6.71a.8.8 0 0 1 .33.59.81.81 0 0 1 -.23.62l-1.44 1.44a.79.79 0 0 1 -.56.23z" fill="#212121"/></svg>