<svg viewBox="0 0 50 50" xmlns="http://www.w3.org/2000/svg"><path d="m0 0h50v50h-50z" fill="none"/><path d="m48.56 19.59a1.18 1.18 0 0 0 -1-.81l-14.84-2.16-6.65-13.47a1.19 1.19 0 0 0 -2.14 0l-6.65 13.47-14.87 2.16a1.19 1.19 0 0 0 -.66 2l10.75 10.53-.06.35-2.44 14.46a1.17 1.17 0 0 0 .48 1.17 1.15 1.15 0 0 0 1.26.09l13.3-7 13.3 7a1.19 1.19 0 0 0 1.66-1.26l-2.5-14.81 10.75-10.49a1.17 1.17 0 0 0 .31-1.23z" fill="none"/><path d="m49.87 19.17a2.55 2.55 0 0 0 -2.08-1.76l-14.15-2.05-6.33-12.83a2.58 2.58 0 0 0 -4.62 0l-6.33 12.83-14.15 2.05a2.57 2.57 0 0 0 -2.08 1.76 2.54 2.54 0 0 0 .65 2.64l10.22 9.98-2.4 14.09a2.58 2.58 0 0 0 3.74 2.72l12.66-6.6 12.65 6.6a2.64 2.64 0 0 0 1.21.3 2.54 2.54 0 0 0 1.51-.49 2.59 2.59 0 0 0 1-2.53l-2.37-14.09 10.24-10a2.54 2.54 0 0 0 .63-2.62zm-12.37 12.14 2.5 14.81a1.19 1.19 0 0 1 -1.73 1.26l-13.3-7-13.3 7a1.15 1.15 0 0 1 -1.26-.09 1.17 1.17 0 0 1 -.41-1.17l2.48-14.46.06-.35-10.79-10.49a1.19 1.19 0 0 1 .66-2l14.87-2.16 6.65-13.51a1.19 1.19 0 0 1 2.14 0l6.65 13.47 14.87 2.16a1.19 1.19 0 0 1 .66 2z"/></svg>