<svg viewBox="0 0 50 50" xmlns="http://www.w3.org/2000/svg"><path d="m0 0h50v50h-50z" fill="none"/><rect fill="none" height="31.55" rx="2.38" width="36.2" x="6.9" y="16.35"/><path d="m40.72 14.25h-1.72v-7.45a6.81 6.81 0 0 0 -6.78-6.8h-14.44a6.81 6.81 0 0 0 -6.78 6.8v3.2h2.1v-3.2a4.71 4.71 0 0 1 4.7-4.7h14.42a4.71 4.71 0 0 1 4.7 4.7v7.45h-27.64a4.49 4.49 0 0 0 -4.48 4.48v26.78a4.49 4.49 0 0 0 4.48 4.49h31.44a4.49 4.49 0 0 0 4.48-4.49v-26.78a4.49 4.49 0 0 0 -4.48-4.48zm2.38 31.26a2.39 2.39 0 0 1 -2.38 2.39h-31.44a2.39 2.39 0 0 1 -2.38-2.39v-26.78a2.39 2.39 0 0 1 2.38-2.38h31.44a2.39 2.39 0 0 1 2.38 2.38z" fill="#212121"/></svg>