<svg viewBox="0 0 50 50" xmlns="http://www.w3.org/2000/svg"><path d="m0 0h50v50h-50z" fill="none"/><path d="m5.07 33.79a6.37 6.37 0 0 1 -2.21-1.48 6.51 6.51 0 0 1 -1.43-2.39 9.45 9.45 0 0 1 -.51-3.19v-11h1.47v10.89a7.47 7.47 0 0 0 .68 3.31 5 5 0 0 0 1.93 2.17 5.42 5.42 0 0 0 2.89.76 5.17 5.17 0 0 0 4-1.67 6.57 6.57 0 0 0 1.52-4.57v-10.93h1.46v11a9.63 9.63 0 0 1 -.5 3.17 6.66 6.66 0 0 1 -1.37 2.43 6.3 6.3 0 0 1 -2.21 1.49 7.58 7.58 0 0 1 -2.86.53 7.34 7.34 0 0 1 -2.86-.52z"/><path d="m7.89 35.23a8.21 8.21 0 0 1 -3.17-.59 7.28 7.28 0 0 1 -2.52-1.64 7.38 7.38 0 0 1 -1.64-2.77 10.53 10.53 0 0 1 -.56-3.5v-12h3.31v11.89a6.71 6.71 0 0 0 .59 2.91 4.11 4.11 0 0 0 1.58 1.78 4.51 4.51 0 0 0 2.41.63 4.26 4.26 0 0 0 3.33-1.37 5.62 5.62 0 0 0 1.27-3.95v-11.85h3.31v12a10.45 10.45 0 0 1 -.55 3.48 7.48 7.48 0 0 1 -1.62 2.71 7.11 7.11 0 0 1 -2.53 1.72 8.57 8.57 0 0 1 -3.21.55z"/><path d="m23.8 33.71a7 7 0 0 1 -2.48-1.77l.79-1a5.76 5.76 0 0 0 2.08 1.57 6.12 6.12 0 0 0 2.5.54 4.21 4.21 0 0 0 2.63-.77 2.4 2.4 0 0 0 1-2 2.61 2.61 0 0 0 -1.13-2.23 10.94 10.94 0 0 0 -2.19-1.05l-.53-.2a24 24 0 0 1 -2.47-1.11 3.64 3.64 0 0 1 -2-2.54 2.91 2.91 0 0 1 -.06-.6 3.42 3.42 0 0 1 .34-1.55 3.67 3.67 0 0 1 1-1.24 4.68 4.68 0 0 1 1.42-.76 5.3 5.3 0 0 1 1.79-.3 7.11 7.11 0 0 1 2.41.44 8.07 8.07 0 0 1 2.28 1.28l-.78 1a7.3 7.3 0 0 0 -1.94-1.12 5.57 5.57 0 0 0 -2-.39 4.28 4.28 0 0 0 -1.19.17 3.38 3.38 0 0 0 -1 .49 2.41 2.41 0 0 0 -.73.82 2.29 2.29 0 0 0 -.28 1.14 2.26 2.26 0 0 0 1.11 2 12.4 12.4 0 0 0 2.13 1l.41.16c1.26.5 2.07.85 2.42 1a4.16 4.16 0 0 1 2 1.89 3.92 3.92 0 0 1 .32 1.63 3.68 3.68 0 0 1 -.65 2.14 4.14 4.14 0 0 1 -1.8 1.45 6.38 6.38 0 0 1 -2.51.49 7.57 7.57 0 0 1 -2.89-.58z"/><path d="m26.69 35.21a8.49 8.49 0 0 1 -3.25-.65 7.81 7.81 0 0 1 -2.8-2l-.55-.6 2-2.42.71.85a4.8 4.8 0 0 0 1.74 1.31 5.19 5.19 0 0 0 2.13.47 3.33 3.33 0 0 0 2.08-.59 1.47 1.47 0 0 0 .66-1.29 1.68 1.68 0 0 0 -.74-1.48 9.56 9.56 0 0 0 -2-1l-.49-.19a22.15 22.15 0 0 1 -2.66-1.17 4.53 4.53 0 0 1 -2.46-3.19 4.3 4.3 0 0 1 -.06-.75 4.39 4.39 0 0 1 .45-1.95 4.72 4.72 0 0 1 1.2-1.54 5.44 5.44 0 0 1 1.74-1 7.22 7.22 0 0 1 4.82.14 9.11 9.11 0 0 1 2.54 1.42l.73.57-1.93 2.46-.73-.59a6.58 6.58 0 0 0 -1.69-1 4 4 0 0 0 -2.58-.2 3.13 3.13 0 0 0 -.76.36 1.53 1.53 0 0 0 -.45.52 1.41 1.41 0 0 0 -.17.69 1.36 1.36 0 0 0 .7 1.22 11.94 11.94 0 0 0 2 .9l.43.17c1.31.52 2.1.86 2.49 1.06a5 5 0 0 1 2.43 2.32 4.82 4.82 0 0 1 .4 2 4.65 4.65 0 0 1 -.83 2.71 5.11 5.11 0 0 1 -2.18 1.76 7.15 7.15 0 0 1 -2.92.68z"/><path d="m37.57 18.77h1.22v7.54h9.07v-7.54h1.22v15.41h-1.22v-6.7h-9.07v6.7h-1.22z"/><path d="m50 35.11h-3.07v-6.71h-7.22v6.71h-3.06v-17.27h3.06v7.55h7.22v-7.55h3.07z"/></svg>