<svg xmlns="http://www.w3.org/2000/svg" width="21.129" height="20" viewBox="0 0 21.129 20">
  <path id="view-agenda" d="M20.033,11.093a1.022,1.022,0,0,1,.783.339,1.146,1.146,0,0,1,.313.807v6.666a1.086,1.086,0,0,1-.313.755,1.024,1.024,0,0,1-.783.339H1.1a1.047,1.047,0,0,1-.756-.339A1.049,1.049,0,0,1,0,18.906V12.239a1.1,1.1,0,0,1,.339-.807,1.046,1.046,0,0,1,.756-.338ZM20.033,0a1.022,1.022,0,0,1,.783.339,1.084,1.084,0,0,1,.313.755V7.76a1.15,1.15,0,0,1-.313.807,1.021,1.021,0,0,1-.783.339H1.1a1.047,1.047,0,0,1-.756-.339A1.1,1.1,0,0,1,0,7.76V1.094A1.044,1.044,0,0,1,.339.339,1.051,1.051,0,0,1,1.1,0Z" fill="#000ceb"/>
</svg>
