<svg viewBox="0 0 50 45.9" xmlns="http://www.w3.org/2000/svg"><g fill="#212121"><path d="m25 35.51a5.2 5.2 0 1 0 5.19 5.2 5.2 5.2 0 0 0 -5.19-5.2zm0 8.68a3.49 3.49 0 1 1 3.48-3.48 3.48 3.48 0 0 1 -3.48 3.48z"/><path d="m25 24.51a17.72 17.72 0 0 0 -12.62 5.27l.89 1.54a16 16 0 0 1 23.46 0l.89-1.54a17.72 17.72 0 0 0 -12.62-5.27z"/><path d="m6.14 19 .86 1.48a28.86 28.86 0 0 1 36 0l.86-1.5a30.57 30.57 0 0 0 -37.72.02z"/><path d="m25 0a41.53 41.53 0 0 0 -25 8.34l.86 1.5a39.9 39.9 0 0 1 48.28 0l.86-1.5a41.53 41.53 0 0 0 -25-8.34z"/></g></svg>