<svg viewBox="0 0 50 46.46" xmlns="http://www.w3.org/2000/svg"><g fill="#0a0a0a"><path d="m25 35.62a5.42 5.42 0 0 0 -5.42 5.38 5.27 5.27 0 0 0 .23 1.54l1.25 2.16a5.37 5.37 0 0 0 7.88 0l1.25-2.16a5.27 5.27 0 0 0 .23-1.54 5.42 5.42 0 0 0 -5.42-5.38z"/><path d="m12 29 2.53 4.39a13.92 13.92 0 0 1 21 0l2.47-4.39a18.79 18.79 0 0 0 -26 0z"/><path d="m6 18.57 2.4 4.25a26.37 26.37 0 0 1 33.2 0l2.45-4.25a31.2 31.2 0 0 0 -38.1 0z"/><path d="m25 0a41.8 41.8 0 0 0 -25 8.27l2.45 4.24a37.06 37.06 0 0 1 45.1 0l2.45-4.24a41.8 41.8 0 0 0 -25-8.27z"/></g></svg>