<svg viewBox="0 0 50 50" xmlns="http://www.w3.org/2000/svg"><path d="m0 0h50v50h-50z" fill="none"/><path d="m15.07 17.02.16-.25v-2.59h-14.59v3.45h9.74l-10.38 15.61v2.58h15.33v-3.45h-10.5z"/><path d="m25.29 19.09-6.4 16.73h3.35l1.48-3.9h5.77l1.51 3.9h3.37l-6.49-16.73zm-.42 9.74 1.72-4.58 1.74 4.58z"/><path d="m45.57 29.41a5 5 0 0 0 2-1.27 5.13 5.13 0 0 0 1.3-3.69 6.24 6.24 0 0 0 -.33-2.07 4.73 4.73 0 0 0 -1.06-1.73 4.63 4.63 0 0 0 -1.86-1.17 7.18 7.18 0 0 0 -2.46-.39h-6v16.73h3.13v-6h1.84l4.08 6h3.79zm-5.35-7.24h2.83a2.93 2.93 0 0 1 2 .58 2.15 2.15 0 0 1 .6 1.69 2.67 2.67 0 0 1 -.16 1 1.85 1.85 0 0 1 -.44.7 2 2 0 0 1 -.82.46 4.65 4.65 0 0 1 -1.48.2h-2.5z"/></svg>